<svg width="953" height="596" viewBox="0 0 953 596" fill="none" xmlns="http://www.w3.org/2000/svg">
<path d="M953 0H0V596H953V0Z" fill="white"/>
<path d="M111.144 510.236C111.144 510.236 7.38575 406.055 93.6025 293.292C170.081 193.223 259.276 200.077 324.705 240.665C352.58 257.949 432.9 242.81 501.308 140.984C594.553 2.1456 917.799 86.3604 858.862 299.967C830.331 403.343 945.674 407.098 886.915 510.444L111.144 510.236Z" fill="#F3F3F3"/>
<path d="M573.825 466.549C573.825 466.489 574.153 459.754 570.907 458.205L571.145 457.996C572.634 458.503 574.272 460.112 574.927 462.407C575.404 464.105 575.046 464.463 575.046 464.522L573.825 466.549Z" fill="#D0D0D0"/>
<path d="M552.293 449.116C552.293 449.116 553.395 457.788 558.667 460.321C563.938 462.854 571.383 458.294 571.383 458.294C571.383 458.294 570.281 449.622 565.01 447.089C559.739 444.556 552.293 449.116 552.293 449.116Z" fill="#D0D0D0"/>
<path d="M573.289 479.154C573.229 478.826 572.068 470.9 575.046 462.079C577.935 453.586 576.327 446.404 576.327 446.344H578.441C578.501 446.642 578.65 453.705 576.386 463.39C574.361 472.092 578.143 479.184 577.339 479.184H573.289V479.154Z" fill="#D0D0D0"/>
<path d="M577.727 455.761C577.727 455.702 578.739 449.92 581.479 449.265C580.258 449.414 578.709 450.308 577.846 451.917C577.19 453.109 577.429 453.467 577.429 453.526L577.727 455.761Z" fill="#D0D0D0"/>
<path d="M586.452 456.357C582.372 455.523 580.109 449.771 580.109 449.771C580.109 449.771 584.427 445.361 588.507 446.166C592.587 447 594.851 452.751 594.851 452.751C594.851 452.751 590.532 457.192 586.452 456.357Z" fill="#D0D0D0"/>
<path d="M554.854 437.613C548.392 427.779 551.102 414.548 560.93 408.051C570.758 401.585 583.981 404.297 590.473 414.131C596.935 423.965 594.225 437.196 584.398 443.662C574.57 450.159 561.347 447.447 554.854 437.613Z" fill="#9F9F9F"/>
<path d="M583.504 442.321C579.186 445.182 573.974 446.166 568.911 445.123C563.819 444.08 559.471 441.1 556.612 436.779C553.753 432.458 552.77 427.243 553.812 422.177C554.854 417.081 557.833 412.73 562.151 409.869C566.469 407.008 571.681 406.025 576.744 407.068C581.807 408.111 586.184 411.091 589.043 415.412C591.902 419.733 592.885 424.948 591.843 430.014C590.8 435.08 587.822 439.461 583.504 442.321ZM562.776 410.823C554.378 416.366 552.025 427.719 557.565 436.123C563.104 444.527 574.451 446.881 582.849 441.338C591.247 435.795 593.6 424.441 588.061 416.038C582.521 407.634 571.175 405.28 562.776 410.823Z" fill="#898989"/>
<path d="M578.143 429.329C577.965 428.941 577.726 428.643 577.488 428.405C577.25 428.166 576.922 427.988 576.565 427.898C576.208 427.779 575.791 427.719 575.314 427.719C574.838 427.719 574.272 427.749 573.617 427.839C572.515 427.988 571.472 428.077 570.519 428.077C569.566 428.107 568.703 428.017 567.899 427.809C567.095 427.6 566.41 427.272 565.784 426.796C565.159 426.319 564.623 425.633 564.176 424.739C563.789 423.965 563.58 423.22 563.551 422.445C563.521 421.67 563.61 420.925 563.878 420.21C564.146 419.495 564.563 418.809 565.099 418.154C565.665 417.498 566.35 416.932 567.184 416.425L565.754 413.535L568.077 412.372L569.537 415.293C570.43 414.995 571.294 414.816 572.128 414.816C572.961 414.816 573.766 414.965 574.51 415.233C575.255 415.531 575.94 415.978 576.535 416.574C577.161 417.17 577.697 417.915 578.143 418.809L573.944 420.895C573.408 419.822 572.753 419.137 572.008 418.839C571.264 418.541 570.49 418.601 569.686 418.988C569.239 419.197 568.911 419.465 568.643 419.733C568.375 420.001 568.226 420.299 568.107 420.627C568.018 420.955 567.988 421.253 568.018 421.61C568.077 421.938 568.167 422.266 568.345 422.624C568.524 422.951 568.703 423.22 568.941 423.458C569.179 423.667 569.477 423.845 569.805 423.965C570.162 424.084 570.579 424.143 571.085 424.143C571.592 424.143 572.157 424.114 572.842 424.054C573.944 423.935 574.987 423.875 575.94 423.845C576.893 423.816 577.756 423.935 578.56 424.114C579.364 424.322 580.049 424.65 580.675 425.157C581.3 425.633 581.836 426.319 582.253 427.183C582.64 427.988 582.879 428.762 582.908 429.507C582.938 430.282 582.819 431.027 582.551 431.713C582.283 432.428 581.866 433.083 581.27 433.739C580.705 434.365 579.99 434.961 579.156 435.467L580.496 438.149L578.203 439.312L576.863 436.63C576.029 436.957 575.165 437.166 574.272 437.285C573.378 437.404 572.515 437.345 571.681 437.106C570.847 436.898 570.073 436.481 569.328 435.885C568.584 435.289 567.958 434.454 567.422 433.381L571.621 431.295C571.949 431.921 572.306 432.428 572.693 432.756C573.081 433.083 573.498 433.322 573.914 433.411C574.331 433.53 574.778 433.53 575.195 433.441C575.642 433.352 576.029 433.203 576.446 433.024C576.893 432.785 577.28 432.547 577.548 432.249C577.846 431.951 578.024 431.653 578.173 431.325C578.292 430.997 578.352 430.67 578.322 430.342C578.411 429.984 578.322 429.656 578.143 429.329Z" fill="#898989"/>
<path d="M594.583 477.098L594.166 483.654L592.587 507.911H563.074L561.347 483.982L560.87 477.396L560.841 477.098H594.583Z" fill="#D6D6D6"/>
<path d="M594.583 477.098L594.166 483.624C591.932 482.849 585.767 481.002 577.727 481.002C567.571 481.002 561.347 483.982 561.347 483.982L560.87 477.396L594.583 477.098Z" fill="#C3C3C3"/>
<path d="M595.595 480.555H559.768L559.351 476.383H596.072L595.595 480.555Z" fill="#D6D6D6"/>
<path d="M593.034 509.193H562.449L562.091 507.732H593.421L593.034 509.193Z" fill="#D6D6D6"/>
<path d="M777.767 352.981L774.908 355.305C774.908 355.305 767.076 352.504 765.289 361.802C765.289 361.802 764.812 365.765 767.344 365.795C769.845 365.795 768.833 365.348 772.377 365.467C775.951 365.586 778.899 363.679 779.405 360.789L781.103 358.345L777.767 352.981Z" fill="#9D9D9D"/>
<path d="M778.095 357.987C775.802 355.603 775.98 353.845 775.98 353.845C775.98 353.845 802.456 332.151 805.136 330.393C806.953 329.201 826.46 311.887 835.573 301.367C840.099 296.152 845.698 298.179 852.101 299.997L857.372 301.516C863.746 303.334 865.384 312.244 860.172 316.595C845.46 328.783 820.98 342.521 816.393 345.382C805.017 352.534 782.77 361.057 782.77 361.057C782.77 361.057 780.06 360.044 778.095 357.987Z" fill="#474747"/>
<path d="M747.897 491.193C747.897 491.193 741.464 496.021 731.636 493.458C731.636 493.458 723.714 491.64 721.957 495.604C721.957 495.604 734.138 501.802 737.205 503.471C739.528 504.752 741.94 506.749 743.668 508.328C745.038 509.55 747.122 509.401 748.284 507.971C748.82 507.315 749.445 506.54 750.1 505.617C751.977 503.084 756.354 494.859 756.354 494.859L747.897 491.193Z" fill="#434343"/>
<path d="M820.789 321.38C824.14 296.79 806.935 274.137 782.36 270.784C757.785 267.431 735.146 284.647 731.795 309.238C728.445 333.828 745.65 356.481 770.225 359.834C794.8 363.187 817.438 345.971 820.789 321.38Z" fill="#787878"/>
<path d="M811.933 347.064C829.471 329.514 829.471 301.061 811.933 283.512C794.394 265.963 765.959 265.963 748.421 283.512C730.882 301.061 730.882 329.514 748.421 347.064C765.959 364.613 794.394 364.613 811.933 347.064Z" fill="#9F9F9F"/>
<path d="M751.262 344.756C743.549 337.038 739.29 326.757 739.29 315.82C739.29 304.884 743.549 294.603 751.262 286.885C758.975 279.166 769.25 274.905 780.179 274.905C791.109 274.905 801.384 279.166 809.097 286.885C816.81 294.603 821.069 304.884 821.069 315.82C821.069 326.757 816.81 337.038 809.097 344.756C801.384 352.474 791.109 356.736 780.179 356.736C769.25 356.736 758.975 352.474 751.262 344.756ZM741.702 315.82C741.702 337.038 758.945 354.322 780.179 354.322C801.384 354.322 818.657 337.068 818.657 315.82C818.657 294.603 801.413 277.319 780.179 277.319C758.975 277.319 741.702 294.573 741.702 315.82Z" fill="#898989"/>
<path d="M775.206 329.797C775.563 330.422 776.04 330.959 776.635 331.376C777.231 331.793 777.946 332.091 778.78 332.27C779.614 332.449 780.567 332.479 781.639 332.359C782.562 332.24 783.455 332.032 784.319 331.674C785.183 331.316 785.927 330.81 786.553 330.124C787.178 329.439 787.655 328.575 787.952 327.532C788.25 326.489 788.31 325.207 788.131 323.717L797.929 322.555C798.227 325.088 798.078 327.293 797.482 329.201C796.887 331.108 795.963 332.747 794.772 334.088C793.551 335.429 792.122 336.531 790.424 337.366C788.756 338.2 786.97 338.826 785.123 339.243L785.868 345.501L780.477 346.127L779.733 339.839C777.678 339.899 775.772 339.69 774.044 339.243C772.317 338.796 770.798 338.081 769.488 337.157C768.178 336.233 767.135 335.071 766.301 333.671C765.468 332.27 764.961 330.661 764.753 328.813C764.514 326.787 764.663 324.969 765.199 323.39C765.736 321.81 766.569 320.38 767.731 319.098C768.892 317.817 770.322 316.655 772.019 315.582C773.717 314.509 775.623 313.436 777.708 312.364C779.018 311.708 780.09 311.082 780.954 310.486C781.817 309.89 782.502 309.324 782.979 308.698C783.455 308.102 783.783 307.476 783.932 306.821C784.081 306.165 784.111 305.45 784.021 304.675C783.932 303.9 783.723 303.185 783.426 302.53C783.128 301.874 782.711 301.338 782.175 300.891C781.639 300.444 780.984 300.146 780.209 299.937C779.435 299.728 778.542 299.699 777.529 299.818C775.653 300.026 774.223 300.831 773.27 302.232C772.287 303.602 771.96 305.569 772.258 308.102L762.46 309.264C762.221 307.149 762.281 305.241 762.698 303.453C763.085 301.695 763.77 300.116 764.723 298.745C765.676 297.374 766.897 296.212 768.416 295.229C769.905 294.275 771.602 293.53 773.538 293.053L772.734 286.199L778.154 285.544L778.958 292.278C781.013 292.219 782.919 292.457 784.617 292.934C786.344 293.411 787.863 294.156 789.144 295.109C790.454 296.063 791.496 297.225 792.3 298.626C793.104 300.026 793.611 301.606 793.819 303.394C794.057 305.45 793.909 307.268 793.373 308.847C792.836 310.427 792.003 311.857 790.841 313.109C789.68 314.36 788.25 315.552 786.553 316.595C784.855 317.668 782.919 318.711 780.805 319.754C779.554 320.35 778.542 320.916 777.678 321.512C776.844 322.078 776.159 322.674 775.682 323.3C775.176 323.926 774.849 324.582 774.67 325.267C774.491 325.982 774.461 326.757 774.581 327.651C774.64 328.456 774.878 329.171 775.206 329.797Z" fill="#898989"/>
<path d="M744.114 488.75C744.114 488.75 748.016 497.779 757.039 496.11C757.039 496.11 775.474 480.883 788.101 465.089C792.211 459.963 795.695 454.748 797.75 450.01C806.119 430.61 828.753 401.644 843.137 386.983L807.161 373.96C807.161 373.96 795.636 397.145 780.299 425.633C769.28 446.136 756.235 469.41 744.114 488.75Z" fill="#5B5B5B"/>
<path d="M780.328 425.604L788.131 465.059C792.241 459.933 795.725 454.718 797.78 449.98C806.149 430.58 828.782 401.615 843.167 386.953L807.191 373.93C807.161 373.901 795.636 397.115 780.328 425.604Z" fill="#434343"/>
<path d="M809.722 496.408C809.722 496.408 810.11 503.62 801.384 504.574C801.384 504.574 796.41 504.603 796.38 509.193L821.724 509.282C821.724 509.282 822.469 507.434 822.648 503.471C822.797 500.431 819.699 492.475 819.699 492.475L809.722 496.408Z" fill="#434343"/>
<path d="M818.955 373.901C818.955 373.901 802.932 391.512 792.747 423.279C787.208 440.563 802.903 483.982 805.94 499.061C805.94 499.061 816.453 499.955 823.66 497.183C823.66 497.183 824.196 466.012 819.997 441.994C817.644 428.554 841.112 413.237 851.357 388.95C858.325 372.411 849.838 372.709 839.414 372.321L818.955 373.901Z" fill="#5B5B5B"/>
<path d="M837.479 295.288C846.383 300.324 864.639 295.676 864.639 295.676C864.639 295.676 857.224 287.183 860.589 273.534L846.056 280.895C846.056 280.895 845.579 283.309 845.222 287.63C845.132 288.732 845.073 289.984 845.013 291.355C840.457 292.785 837.479 295.288 837.479 295.288Z" fill="#BDBDBD"/>
<path d="M804.779 373.007C804.779 374.586 806.596 375.331 806.953 375.391C810.556 376.046 820.593 379.95 829.646 380.844C837.27 381.649 844.328 380.874 852.101 379.324C853.143 379.116 855.556 378.46 855.705 377.477C855.913 376.404 885.665 316.774 862.554 291.176C862.018 290.58 857.432 291.653 853.263 292.636C849.421 293.56 845.877 293.053 842.72 291.772L838.819 293.828C834.024 296.51 824.911 306.046 823.839 313.496C823.303 317.31 821.129 320.112 820.503 323.449C820.265 324.701 820.027 325.893 819.789 327.085C819.312 329.409 818.836 331.585 818.329 333.671C816.959 339.333 815.53 344.19 814.13 348.392C812.641 352.862 811.152 356.557 809.842 359.686C808.144 363.709 806.685 366.719 805.791 369.043C805.136 370.712 804.779 371.964 804.779 373.007Z" fill="#E7E7E7"/>
<path d="M805.762 369.073C847.753 349.286 862.316 311.261 862.316 311.261C862.316 311.261 828.187 323.866 819.789 327.144C819.312 329.469 818.836 331.644 818.329 333.73C816.959 339.392 815.53 344.25 814.13 348.451C812.641 352.921 811.152 356.617 809.842 359.746C808.114 363.769 806.685 366.778 805.762 369.073Z" fill="#D0D0D0"/>
<path d="M781.192 357.6L777.559 358.941C777.559 358.941 770.292 353.786 765.765 362.159C765.765 362.159 764.127 365.825 766.718 366.6C769.309 367.404 768.356 366.659 772.019 367.851C775.653 369.073 779.256 368.179 780.626 365.586L783.098 363.769L781.192 357.6Z" fill="#BDBDBD"/>
<path d="M778.214 362.726C776.874 359.209 776.248 357.63 776.248 357.63C776.248 357.63 803.677 335.25 806.476 333.343C808.382 332.032 827.323 317.847 836.585 306.821C841.172 301.338 848.408 298.834 855.377 300.295L861.125 301.516C868.064 302.977 870.327 311.768 864.937 316.416C849.749 329.439 824.137 344.548 819.372 347.706C807.519 355.514 781.281 366.451 781.281 366.451C781.281 366.451 779.256 365.497 778.214 362.726Z" fill="#E7E7E7"/>
<path d="M845.252 287.689C854.007 288.196 859.725 280.925 859.725 280.925C859.725 280.925 855.764 278.719 853.59 277.11L846.056 280.925C846.085 280.925 845.579 283.338 845.252 287.689Z" fill="#9D9D9D"/>
<path d="M841.499 278.66C841.499 278.66 854.781 288.196 860.589 279.822C866.396 271.448 872.025 267.038 863.775 260.601C855.526 254.164 851.654 256.191 849.034 258.515C846.443 260.869 838.193 275.978 841.499 278.66Z" fill="#BDBDBD"/>
<path d="M847.664 250.976C848.14 247.757 849.212 245.492 849.212 245.492C849.212 245.492 850.046 248.949 856.36 248.472C862.674 247.996 872.68 249.098 876.016 256.28C876.224 256.727 876.403 257.204 876.581 257.681C877.177 256.071 877.326 253.687 877.326 253.687C878.517 256.787 877.326 260.661 877.326 260.661C877.356 260.78 877.356 260.899 877.385 260.988C878.785 262.18 879.947 265.816 879.947 265.816C879.53 264.803 878.487 264.117 877.594 263.73C877.624 269.332 875.36 274.816 871.37 276.425C865.533 278.809 865.592 276.991 859.725 280.865C859.725 280.865 858.147 278.928 859.219 277.617C860.291 276.306 864.341 274.398 862.078 272.491C859.815 270.584 858.981 272.73 858.147 271.418C857.313 270.107 861.482 266.293 856.122 262.717C850.761 259.141 847.187 254.194 847.664 250.976Z" fill="#434343"/>
<path d="M275.625 501.862V507.047C275.625 507.464 275.477 507.852 275.209 508.15C274.94 508.477 274.553 508.746 274.077 508.895C273.928 508.954 273.779 508.984 273.63 508.984C273.481 509.014 273.362 509.014 273.213 509.014H174.816C173.535 509.014 172.493 508.179 172.433 507.107C172.433 507.077 172.433 507.047 172.433 507.017V501.832C172.433 501.802 172.433 501.772 172.433 501.743C172.493 500.7 173.535 499.835 174.816 499.835H273.243C273.392 499.835 273.541 499.835 273.66 499.865C273.809 499.895 273.958 499.925 274.107 499.955C274.553 500.104 274.94 500.372 275.238 500.7C275.477 501.057 275.625 501.445 275.625 501.862Z" fill="#9F9F9F"/>
<path d="M227.29 509.044H174.578C173.446 509.044 172.523 508.209 172.463 507.136C172.463 507.107 172.463 507.077 172.463 507.047V501.862C172.463 501.832 172.463 501.802 172.463 501.772C172.523 500.729 173.446 499.865 174.578 499.865H220.828C221.572 502.547 223.3 506.302 227.29 509.044Z" fill="#898989"/>
<path d="M263.683 499.865H262.551V509.073H263.683V499.865Z" fill="#898989"/>
<path d="M259.901 499.865H258.769V509.073H259.901V499.865Z" fill="#898989"/>
<path d="M255.344 499.865H254.213V509.073H255.344V499.865Z" fill="#898989"/>
<path d="M248.376 499.865H247.244V509.073H248.376V499.865Z" fill="#898989"/>
<path d="M241.02 499.865H239.888V509.073H241.02V499.865Z" fill="#898989"/>
<path d="M229.733 499.865H228.601V509.073H229.733V499.865Z" fill="#898989"/>
<path d="M219.16 499.865H218.028V509.073H219.16V499.865Z" fill="#898989"/>
<path d="M209.749 499.865H208.618V509.073H209.749V499.865Z" fill="#898989"/>
<path d="M267.287 499.865H266.155V509.073H267.287V499.865Z" fill="#898989"/>
<path d="M269.669 499.865H268.538V509.073H269.669V499.865Z" fill="#898989"/>
<path d="M271.962 499.865H270.831V509.073H271.962V499.865Z" fill="#898989"/>
<path d="M273.69 499.895V509.014C273.541 509.044 273.422 509.044 273.273 509.044H272.588V499.835H273.273C273.392 499.865 273.541 499.865 273.69 499.895Z" fill="#898989"/>
<path d="M275.238 500.729V508.15C274.97 508.477 274.583 508.746 274.107 508.895V499.955C274.583 500.133 274.97 500.402 275.238 500.729Z" fill="#898989"/>
<path d="M265.113 492.654V497.839C265.113 498.256 264.964 498.643 264.696 498.941C264.428 499.269 264.041 499.537 263.564 499.686C263.415 499.746 263.266 499.776 263.117 499.776C262.968 499.806 262.849 499.806 262.7 499.806H164.303C163.023 499.806 161.98 498.971 161.921 497.898C161.921 497.869 161.921 497.839 161.921 497.809V492.624C161.921 492.594 161.921 492.564 161.921 492.534C161.98 491.491 163.023 490.627 164.303 490.627H262.73C262.79 490.627 262.849 490.627 262.909 490.627C262.939 490.627 262.968 490.627 262.998 490.627C263.028 490.627 263.058 490.627 263.088 490.627C263.117 490.627 263.117 490.627 263.147 490.627C263.296 490.657 263.445 490.687 263.594 490.717C263.624 490.717 263.624 490.717 263.653 490.746C263.683 490.746 263.683 490.746 263.713 490.776C263.743 490.806 263.802 490.806 263.832 490.836C263.862 490.836 263.892 490.866 263.892 490.866C263.921 490.866 263.921 490.895 263.951 490.895C263.981 490.925 264.041 490.925 264.07 490.955C264.1 490.985 264.16 491.015 264.189 491.044C264.219 491.074 264.249 491.074 264.279 491.104C264.309 491.104 264.309 491.134 264.338 491.164C264.398 491.223 264.457 491.253 264.517 491.313C264.547 491.342 264.547 491.342 264.577 491.372C264.606 491.402 264.606 491.402 264.636 491.432C264.666 491.462 264.696 491.491 264.726 491.521C264.964 491.849 265.113 492.236 265.113 492.654Z" fill="#9F9F9F"/>
<path d="M216.778 499.865H164.035C162.903 499.865 161.98 499.031 161.921 497.958C161.921 497.928 161.921 497.898 161.921 497.869V492.683C161.921 492.654 161.921 492.624 161.921 492.594C161.98 491.551 162.903 490.687 164.035 490.687H210.285C210.315 490.776 210.315 490.836 210.345 490.925C211.149 493.577 212.876 497.183 216.778 499.865Z" fill="#898989"/>
<path d="M253.141 490.657H252.009V499.865H253.141V490.657Z" fill="#898989"/>
<path d="M249.358 490.657H248.227V499.865H249.358V490.657Z" fill="#898989"/>
<path d="M244.832 490.657H243.7V499.865H244.832V490.657Z" fill="#898989"/>
<path d="M237.863 490.657H236.731V499.865H237.863V490.657Z" fill="#898989"/>
<path d="M230.507 490.657H229.375V499.865H230.507V490.657Z" fill="#898989"/>
<path d="M219.22 490.657H218.088V499.865H219.22V490.657Z" fill="#898989"/>
<path d="M208.647 490.657H207.516V499.865H208.647V490.657Z" fill="#898989"/>
<path d="M199.207 490.657H198.075V499.865H199.207V490.657Z" fill="#898989"/>
<path d="M256.744 490.657H255.612V499.865H256.744V490.657Z" fill="#898989"/>
<path d="M259.127 490.657H257.995V499.865H259.127V490.657Z" fill="#898989"/>
<path d="M261.45 490.657H260.318V499.865H261.45V490.657Z" fill="#898989"/>
<path d="M263.147 490.687V499.806C262.998 499.835 262.879 499.835 262.73 499.835H262.045V490.627H262.73C262.879 490.657 263.028 490.657 263.147 490.687Z" fill="#898989"/>
<path d="M264.696 491.551V498.971C264.428 499.299 264.041 499.567 263.564 499.716V490.776C264.041 490.955 264.428 491.193 264.696 491.551Z" fill="#898989"/>
<path d="M270.205 483.684V488.869C270.205 489.286 270.056 489.674 269.788 489.972C269.52 490.299 269.133 490.568 268.657 490.717C268.508 490.776 268.359 490.806 268.21 490.806C268.061 490.836 267.942 490.836 267.793 490.836H169.396C169.009 490.836 168.621 490.746 168.294 490.597C167.609 490.299 167.103 489.703 167.013 489.018C167.013 488.988 167.013 488.958 167.013 488.929C167.013 488.899 167.013 488.869 167.013 488.839V483.654C167.013 483.624 167.013 483.594 167.013 483.565C167.073 482.522 168.115 481.657 169.396 481.657H267.823C267.972 481.657 268.121 481.657 268.24 481.687C268.389 481.717 268.538 481.747 268.686 481.777C269.133 481.926 269.52 482.194 269.818 482.522C270.056 482.909 270.205 483.267 270.205 483.684Z" fill="#9F9F9F"/>
<path d="M221.87 490.895H169.128C168.77 490.895 168.443 490.806 168.145 490.657C167.52 490.359 167.073 489.763 167.013 489.078C167.013 489.048 167.013 489.018 167.013 488.988C167.013 488.958 167.013 488.929 167.013 488.899V483.714C167.013 483.684 167.013 483.654 167.013 483.624C167.073 482.581 167.996 481.717 169.128 481.717H215.378C216.093 484.339 217.731 487.975 221.543 490.687C221.662 490.746 221.751 490.806 221.87 490.895Z" fill="#898989"/>
<path d="M258.233 481.687H257.102V490.895H258.233V481.687Z" fill="#898989"/>
<path d="M254.451 481.687H253.319V490.895H254.451V481.687Z" fill="#898989"/>
<path d="M249.894 481.687H248.763V490.895H249.894V481.687Z" fill="#898989"/>
<path d="M242.955 481.687H241.824V490.895H242.955V481.687Z" fill="#898989"/>
<path d="M235.599 481.687H234.468V490.895H235.599V481.687Z" fill="#898989"/>
<path d="M224.312 481.687H223.181V490.895H224.312V481.687Z" fill="#898989"/>
<path d="M213.74 481.687H212.608V490.895H213.74V481.687Z" fill="#898989"/>
<path d="M204.299 481.687H203.168V490.895H204.299V481.687Z" fill="#898989"/>
<path d="M261.837 481.687H260.705V490.895H261.837V481.687Z" fill="#898989"/>
<path d="M264.219 481.687H263.088V490.895H264.219V481.687Z" fill="#898989"/>
<path d="M266.512 481.687H265.381V490.895H266.512V481.687Z" fill="#898989"/>
<path d="M268.24 481.717V490.836C268.091 490.866 267.972 490.866 267.823 490.866H267.138V481.657H267.823C267.972 481.687 268.091 481.717 268.24 481.717Z" fill="#898989"/>
<path d="M269.788 482.581V490.001C269.52 490.329 269.133 490.597 268.657 490.746V481.806C269.133 481.985 269.52 482.253 269.788 482.581Z" fill="#898989"/>
<path d="M272.558 474.505V479.691C272.558 480.108 272.409 480.495 272.141 480.793C271.873 481.121 271.486 481.389 271.009 481.538C270.86 481.598 270.712 481.628 270.563 481.628C270.414 481.657 270.295 481.657 270.146 481.657H171.748C170.468 481.657 169.426 480.823 169.366 479.75C169.366 479.72 169.366 479.691 169.366 479.661V474.476C169.366 474.446 169.366 474.416 169.366 474.386C169.426 473.403 170.319 472.628 171.451 472.509C171.54 472.509 171.629 472.509 171.719 472.509H270.146C270.295 472.509 270.444 472.509 270.563 472.539C270.712 472.568 270.86 472.598 271.009 472.628C271.456 472.777 271.843 473.045 272.141 473.373C272.409 473.701 272.558 474.088 272.558 474.505Z" fill="#9F9F9F"/>
<path d="M224.223 481.687H171.48C170.349 481.687 169.426 480.853 169.366 479.78C169.366 479.75 169.366 479.72 169.366 479.691V474.505C169.366 474.476 169.366 474.446 169.366 474.416C169.426 473.433 170.23 472.658 171.242 472.539C171.332 472.539 171.421 472.539 171.48 472.539H217.731C218.505 475.221 220.203 478.946 224.223 481.687Z" fill="#898989"/>
<path d="M260.586 472.509H259.454V481.717H260.586V472.509Z" fill="#898989"/>
<path d="M256.804 472.509H255.672V481.717H256.804V472.509Z" fill="#898989"/>
<path d="M252.277 472.509H251.145V481.717H252.277V472.509Z" fill="#898989"/>
<path d="M245.308 472.509H244.176V481.717H245.308V472.509Z" fill="#898989"/>
<path d="M237.952 472.509H236.82V481.717H237.952V472.509Z" fill="#898989"/>
<path d="M226.665 472.509H225.533V481.717H226.665V472.509Z" fill="#898989"/>
<path d="M216.093 472.509H214.961V481.717H216.093V472.509Z" fill="#898989"/>
<path d="M206.652 472.509H205.52V481.717H206.652V472.509Z" fill="#898989"/>
<path d="M264.189 472.509H263.058V481.717H264.189V472.509Z" fill="#898989"/>
<path d="M266.572 472.509H265.44V481.717H266.572V472.509Z" fill="#898989"/>
<path d="M268.865 472.509H267.733V481.717H268.865V472.509Z" fill="#898989"/>
<path d="M270.592 472.539V481.657C270.444 481.687 270.324 481.687 270.175 481.687H269.491V472.479H270.175C270.324 472.509 270.473 472.509 270.592 472.539Z" fill="#898989"/>
<path d="M272.141 473.373V480.793C271.873 481.121 271.486 481.389 271.009 481.538V472.598C271.486 472.777 271.873 473.045 272.141 473.373Z" fill="#898989"/>
<path d="M265.321 465.327V470.512C265.321 470.929 265.172 471.317 264.904 471.615C264.636 471.943 264.249 472.211 263.773 472.36C263.624 472.419 263.475 472.449 263.326 472.449C263.266 472.449 263.236 472.449 263.177 472.479C263.147 472.479 263.117 472.479 263.088 472.479C263.058 472.479 263.028 472.479 262.998 472.479C262.968 472.479 262.909 472.479 262.879 472.479H164.512C163.231 472.479 162.189 471.645 162.129 470.572C162.129 470.542 162.129 470.512 162.129 470.482V465.297C162.129 465.267 162.129 465.238 162.129 465.208C162.129 465.178 162.129 465.148 162.129 465.118C162.218 464.284 162.963 463.569 163.916 463.36C163.946 463.36 163.976 463.36 163.976 463.36C164.154 463.33 164.303 463.301 164.482 463.301H262.909C262.968 463.301 263.058 463.301 263.117 463.301C263.147 463.301 263.177 463.301 263.207 463.301C263.236 463.301 263.266 463.301 263.326 463.33C263.475 463.36 263.624 463.39 263.773 463.42C264.219 463.569 264.606 463.837 264.904 464.165C265.172 464.522 265.321 464.91 265.321 465.327Z" fill="#9F9F9F"/>
<path d="M216.986 472.509H164.244C163.112 472.509 162.189 471.674 162.129 470.602C162.129 470.572 162.129 470.542 162.129 470.512V465.327C162.129 465.297 162.129 465.267 162.129 465.238C162.129 465.208 162.129 465.178 162.129 465.148C162.218 464.284 162.903 463.569 163.767 463.39C163.797 463.39 163.827 463.39 163.856 463.36C163.976 463.33 164.095 463.33 164.244 463.33H210.494C210.494 463.36 210.494 463.36 210.524 463.39C211.268 466.072 212.995 469.767 216.986 472.509Z" fill="#898989"/>
<path d="M253.349 463.33H252.217V472.539H253.349V463.33Z" fill="#898989"/>
<path d="M249.567 463.33H248.435V472.539H249.567V463.33Z" fill="#898989"/>
<path d="M245.04 463.33H243.908V472.539H245.04V463.33Z" fill="#898989"/>
<path d="M238.071 463.33H236.94V472.539H238.071V463.33Z" fill="#898989"/>
<path d="M230.715 463.33H229.584V472.539H230.715V463.33Z" fill="#898989"/>
<path d="M219.428 463.33H218.297V472.539H219.428V463.33Z" fill="#898989"/>
<path d="M208.856 463.33H207.724V472.539H208.856V463.33Z" fill="#898989"/>
<path d="M199.415 463.33H198.284V472.539H199.415V463.33Z" fill="#898989"/>
<path d="M256.953 463.33H255.821V472.539H256.953V463.33Z" fill="#898989"/>
<path d="M259.335 463.33H258.203V472.539H259.335V463.33Z" fill="#898989"/>
<path d="M261.628 463.33H260.497V472.539H261.628V463.33Z" fill="#898989"/>
<path d="M263.356 463.36V472.479C263.207 472.509 263.088 472.509 262.939 472.509H262.254V463.301H262.939C263.088 463.33 263.236 463.33 263.356 463.36Z" fill="#898989"/>
<path d="M264.904 464.195V471.615C264.636 471.943 264.249 472.211 263.773 472.36V463.45C264.249 463.599 264.636 463.867 264.904 464.195Z" fill="#898989"/>
<path d="M265.113 456.178V461.364C265.113 461.781 264.964 462.168 264.696 462.466C264.428 462.794 264.041 463.062 263.564 463.211C263.445 463.241 263.326 463.271 263.236 463.301C263.207 463.301 263.177 463.301 263.147 463.33C262.998 463.36 262.879 463.36 262.73 463.36H164.303C164.214 463.36 164.095 463.36 164.005 463.33C163.976 463.33 163.916 463.33 163.886 463.301C162.814 463.152 161.98 462.377 161.921 461.423C161.921 461.393 161.921 461.364 161.921 461.334V456.149C161.921 456.119 161.921 456.089 161.921 456.059C161.98 455.016 163.023 454.152 164.303 454.152H262.73C262.79 454.152 262.849 454.152 262.909 454.152C262.939 454.152 262.968 454.152 262.998 454.152C263.028 454.152 263.058 454.152 263.088 454.152C263.117 454.152 263.117 454.152 263.147 454.152C263.296 454.182 263.445 454.212 263.594 454.241C263.624 454.241 263.624 454.241 263.653 454.271C263.683 454.271 263.683 454.271 263.713 454.301C263.743 454.331 263.802 454.331 263.832 454.361C263.862 454.39 263.921 454.39 263.951 454.42C263.981 454.45 264.041 454.45 264.07 454.48C264.1 454.51 264.16 454.539 264.189 454.569C264.219 454.599 264.249 454.599 264.279 454.629C264.309 454.629 264.309 454.659 264.338 454.688C264.398 454.748 264.457 454.778 264.517 454.837C264.547 454.867 264.547 454.867 264.577 454.897C264.606 454.927 264.606 454.927 264.636 454.957C264.666 454.986 264.696 455.016 264.726 455.046C264.964 455.404 265.113 455.761 265.113 456.178Z" fill="#9F9F9F"/>
<path d="M216.778 463.39H164.035C164.005 463.39 163.946 463.39 163.916 463.39C163.856 463.39 163.827 463.39 163.767 463.39C162.755 463.271 161.95 462.466 161.891 461.513C161.891 461.483 161.891 461.453 161.891 461.423V456.238C161.891 456.208 161.891 456.178 161.891 456.149C161.95 455.106 162.874 454.241 164.005 454.241H210.256C210.285 454.331 210.285 454.39 210.315 454.48C211.089 457.132 212.787 460.708 216.629 463.39C216.718 463.33 216.748 463.36 216.778 463.39Z" fill="#898989"/>
<path d="M253.141 454.182H252.009V463.39H253.141V454.182Z" fill="#898989"/>
<path d="M249.358 454.182H248.227V463.39H249.358V454.182Z" fill="#898989"/>
<path d="M244.832 454.182H243.7V463.39H244.832V454.182Z" fill="#898989"/>
<path d="M237.863 454.182H236.731V463.39H237.863V454.182Z" fill="#898989"/>
<path d="M230.507 454.182H229.375V463.39H230.507V454.182Z" fill="#898989"/>
<path d="M219.22 454.182H218.088V463.39H219.22V454.182Z" fill="#898989"/>
<path d="M208.647 454.182H207.516V463.39H208.647V454.182Z" fill="#898989"/>
<path d="M199.207 454.182H198.075V463.39H199.207V454.182Z" fill="#898989"/>
<path d="M256.744 454.182H255.612V463.39H256.744V454.182Z" fill="#898989"/>
<path d="M259.127 454.182H257.995V463.39H259.127V454.182Z" fill="#898989"/>
<path d="M261.45 454.182H260.318V463.39H261.45V454.182Z" fill="#898989"/>
<path d="M263.147 454.212V463.33C262.998 463.36 262.879 463.36 262.73 463.36H262.045V454.152H262.73C262.879 454.182 263.028 454.212 263.147 454.212Z" fill="#898989"/>
<path d="M264.696 455.076V462.496C264.428 462.824 264.041 463.092 263.564 463.241V454.301C264.041 454.48 264.428 454.748 264.696 455.076Z" fill="#898989"/>
<path d="M270.205 447.209V452.394C270.205 452.811 270.056 453.198 269.788 453.496C269.52 453.824 269.133 454.092 268.657 454.241C268.508 454.301 268.359 454.331 268.21 454.331C268.061 454.361 267.942 454.361 267.793 454.361H169.396C169.009 454.361 168.621 454.271 168.294 454.122C167.609 453.824 167.103 453.228 167.013 452.543C167.013 452.513 167.013 452.483 167.013 452.453C167.013 452.424 167.013 452.394 167.013 452.364V447.179C167.013 447.149 167.013 447.119 167.013 447.089C167.073 446.046 168.115 445.182 169.396 445.182H267.823C267.972 445.182 268.121 445.182 268.24 445.212C268.389 445.242 268.538 445.272 268.686 445.301C269.133 445.45 269.52 445.719 269.818 446.046C270.056 446.434 270.205 446.791 270.205 447.209Z" fill="#9F9F9F"/>
<path d="M221.87 454.42H169.128C168.77 454.42 168.443 454.331 168.145 454.182C167.52 453.884 167.073 453.288 167.013 452.602C167.013 452.573 167.013 452.543 167.013 452.513C167.013 452.483 167.013 452.453 167.013 452.424V447.238C167.013 447.209 167.013 447.179 167.013 447.149C167.073 446.106 167.996 445.242 169.128 445.242H215.378C216.093 447.864 217.731 451.5 221.543 454.212C221.662 454.271 221.751 454.331 221.87 454.42Z" fill="#898989"/>
<path d="M258.233 445.212H257.102V454.42H258.233V445.212Z" fill="#898989"/>
<path d="M254.451 445.212H253.319V454.42H254.451V445.212Z" fill="#898989"/>
<path d="M249.894 445.212H248.763V454.42H249.894V445.212Z" fill="#898989"/>
<path d="M242.955 445.212H241.824V454.42H242.955V445.212Z" fill="#898989"/>
<path d="M235.599 445.212H234.468V454.42H235.599V445.212Z" fill="#898989"/>
<path d="M224.312 445.212H223.181V454.42H224.312V445.212Z" fill="#898989"/>
<path d="M213.74 445.212H212.608V454.42H213.74V445.212Z" fill="#898989"/>
<path d="M204.299 445.212H203.168V454.42H204.299V445.212Z" fill="#898989"/>
<path d="M261.837 445.212H260.705V454.42H261.837V445.212Z" fill="#898989"/>
<path d="M264.219 445.212H263.088V454.42H264.219V445.212Z" fill="#898989"/>
<path d="M266.512 445.212H265.381V454.42H266.512V445.212Z" fill="#898989"/>
<path d="M268.24 445.242V454.361C268.091 454.39 267.972 454.39 267.823 454.39H267.138V445.212H267.823C267.972 445.212 268.091 445.242 268.24 445.242Z" fill="#898989"/>
<path d="M269.788 446.106V453.526C269.52 453.854 269.133 454.122 268.657 454.271V445.331C269.133 445.51 269.52 445.778 269.788 446.106Z" fill="#898989"/>
<path d="M278.246 438.03V443.215C278.246 443.633 278.097 444.02 277.829 444.318C277.561 444.646 277.174 444.914 276.698 445.063C276.549 445.123 276.4 445.152 276.251 445.152C276.102 445.182 275.983 445.182 275.834 445.182H177.437C176.156 445.182 175.114 444.348 175.054 443.275C175.054 443.245 175.054 443.215 175.054 443.186V438C175.054 437.971 175.054 437.941 175.054 437.911C175.114 436.928 176.007 436.153 177.139 436.034C177.228 436.034 177.318 436.034 177.407 436.034H275.834C275.983 436.034 276.132 436.034 276.251 436.063C276.4 436.093 276.549 436.123 276.698 436.153C277.144 436.302 277.531 436.57 277.829 436.898C278.097 437.226 278.246 437.613 278.246 438.03Z" fill="#9F9F9F"/>
<path d="M229.911 445.212H177.169C176.037 445.212 175.114 444.378 175.054 443.305C175.054 443.275 175.054 443.245 175.054 443.215V438.03C175.054 438 175.054 437.971 175.054 437.941C175.114 436.957 175.918 436.183 176.93 436.063C177.02 436.063 177.109 436.063 177.169 436.063H223.419C224.163 438.745 225.891 442.47 229.911 445.212Z" fill="#898989"/>
<path d="M266.274 436.034H265.142V445.242H266.274V436.034Z" fill="#898989"/>
<path d="M262.492 436.034H261.36V445.242H262.492V436.034Z" fill="#898989"/>
<path d="M257.965 436.034H256.833V445.242H257.965V436.034Z" fill="#898989"/>
<path d="M250.996 436.034H249.865V445.242H250.996V436.034Z" fill="#898989"/>
<path d="M243.64 436.034H242.509V445.242H243.64V436.034Z" fill="#898989"/>
<path d="M232.353 436.034H231.222V445.242H232.353V436.034Z" fill="#898989"/>
<path d="M221.781 436.034H220.649V445.242H221.781V436.034Z" fill="#898989"/>
<path d="M212.34 436.034H211.209V445.242H212.34V436.034Z" fill="#898989"/>
<path d="M269.878 436.034H268.746V445.242H269.878V436.034Z" fill="#898989"/>
<path d="M272.26 436.034H271.129V445.242H272.26V436.034Z" fill="#898989"/>
<path d="M274.553 436.034H273.422V445.242H274.553V436.034Z" fill="#898989"/>
<path d="M276.281 436.063V445.182C276.132 445.212 276.013 445.212 275.864 445.212H275.179V436.004H275.864C276.013 436.034 276.132 436.034 276.281 436.063Z" fill="#898989"/>
<path d="M277.829 436.898V444.318C277.561 444.646 277.174 444.914 276.698 445.063V436.123C277.174 436.302 277.561 436.57 277.829 436.898Z" fill="#898989"/>
<path d="M265.321 428.852V434.037C265.321 434.454 265.172 434.842 264.904 435.14C264.636 435.467 264.249 435.736 263.773 435.885C263.624 435.944 263.475 435.974 263.326 435.974C263.266 435.974 263.236 435.974 263.177 436.004C263.147 436.004 263.117 436.004 263.058 436.004C263.028 436.004 263.028 436.004 262.998 436.004C262.968 436.004 262.909 436.004 262.879 436.004H164.512C163.231 436.004 162.189 435.169 162.129 434.097C162.129 434.067 162.129 434.037 162.129 434.007V428.822C162.129 428.792 162.129 428.762 162.129 428.733C162.189 427.69 163.231 426.825 164.512 426.825H262.939C262.968 426.825 263.028 426.825 263.058 426.825C263.147 426.825 263.266 426.825 263.356 426.855C263.504 426.885 263.653 426.915 263.802 426.945C263.862 426.974 263.951 427.004 264.011 427.034C264.041 427.064 264.1 427.064 264.13 427.094C264.16 427.123 264.219 427.123 264.249 427.153C264.249 427.153 264.249 427.153 264.279 427.153C264.309 427.183 264.338 427.183 264.398 427.213C264.487 427.272 264.547 427.332 264.636 427.392C264.666 427.421 264.696 427.421 264.696 427.451L264.726 427.481C264.755 427.511 264.785 427.541 264.785 427.541C264.815 427.57 264.845 427.6 264.874 427.66C265.172 428.047 265.321 428.435 265.321 428.852Z" fill="#9F9F9F"/>
<path d="M216.986 436.034H164.244C163.112 436.034 162.189 435.199 162.129 434.126C162.129 434.097 162.129 434.067 162.129 434.037V428.852C162.129 428.822 162.129 428.792 162.129 428.762C162.189 427.719 163.112 426.855 164.244 426.855H210.494C210.524 426.915 210.524 427.004 210.553 427.064C211.328 429.746 213.055 433.352 216.986 436.034Z" fill="#898989"/>
<path d="M253.349 426.855H252.217V436.063H253.349V426.855Z" fill="#898989"/>
<path d="M249.567 426.855H248.435V436.063H249.567V426.855Z" fill="#898989"/>
<path d="M245.04 426.855H243.908V436.063H245.04V426.855Z" fill="#898989"/>
<path d="M238.071 426.855H236.94V436.063H238.071V426.855Z" fill="#898989"/>
<path d="M230.715 426.855H229.584V436.063H230.715V426.855Z" fill="#898989"/>
<path d="M219.428 426.855H218.297V436.063H219.428V426.855Z" fill="#898989"/>
<path d="M208.856 426.855H207.724V436.063H208.856V426.855Z" fill="#898989"/>
<path d="M199.415 426.855H198.284V436.063H199.415V426.855Z" fill="#898989"/>
<path d="M256.953 426.855H255.821V436.063H256.953V426.855Z" fill="#898989"/>
<path d="M259.335 426.855H258.203V436.063H259.335V426.855Z" fill="#898989"/>
<path d="M261.628 426.855H260.497V436.063H261.628V426.855Z" fill="#898989"/>
<path d="M263.356 426.885V436.004C263.207 436.034 263.088 436.034 262.939 436.034H262.254V426.825L262.939 426.825C263.088 426.855 263.236 426.855 263.356 426.885Z" fill="#898989"/>
<path d="M264.904 427.719V435.14C264.636 435.467 264.249 435.736 263.773 435.885V426.945C264.249 427.123 264.636 427.392 264.904 427.719Z" fill="#898989"/>
<path d="M272.558 419.852V425.037C272.558 425.455 272.409 425.842 272.141 426.14C271.873 426.468 271.486 426.736 271.009 426.885C270.86 426.945 270.712 426.974 270.563 426.974C270.414 427.004 270.295 427.004 270.146 427.004H171.748C171.361 427.004 171.004 426.915 170.676 426.796C169.962 426.498 169.455 425.902 169.366 425.186C169.366 425.157 169.366 425.127 169.366 425.097C169.366 425.067 169.366 425.037 169.366 425.008V419.822C169.366 419.793 169.366 419.763 169.366 419.733C169.426 418.75 170.319 417.975 171.451 417.856C171.54 417.856 171.629 417.856 171.719 417.856H270.146C270.295 417.856 270.444 417.856 270.563 417.885C270.712 417.915 270.86 417.945 271.009 417.975C271.456 418.124 271.843 418.392 272.141 418.72C272.409 419.077 272.558 419.435 272.558 419.852Z" fill="#9F9F9F"/>
<path d="M224.223 427.064H171.48C171.153 427.064 170.825 426.974 170.527 426.855C169.872 426.557 169.426 425.961 169.366 425.246C169.366 425.216 169.366 425.186 169.366 425.157C169.366 425.127 169.366 425.097 169.366 425.067V419.882C169.366 419.852 169.366 419.822 169.366 419.793C169.426 418.809 170.23 418.034 171.242 417.915C171.332 417.915 171.421 417.915 171.48 417.915H217.731C218.445 420.538 220.113 424.173 223.895 426.885C224.015 426.915 224.134 426.974 224.223 427.064Z" fill="#898989"/>
<path d="M260.586 417.856H259.454V427.064H260.586V417.856Z" fill="#898989"/>
<path d="M256.804 417.856H255.672V427.064H256.804V417.856Z" fill="#898989"/>
<path d="M252.277 417.856H251.145V427.064H252.277V417.856Z" fill="#898989"/>
<path d="M245.308 417.856H244.176V427.064H245.308V417.856Z" fill="#898989"/>
<path d="M237.952 417.856H236.82V427.064H237.952V417.856Z" fill="#898989"/>
<path d="M226.665 417.856H225.533V427.064H226.665V417.856Z" fill="#898989"/>
<path d="M216.093 417.856H214.961V427.064H216.093V417.856Z" fill="#898989"/>
<path d="M206.652 417.856H205.52V427.064H206.652V417.856Z" fill="#898989"/>
<path d="M264.189 417.856H263.058V427.064H264.189V417.856Z" fill="#898989"/>
<path d="M266.572 417.856H265.44V427.064H266.572V417.856Z" fill="#898989"/>
<path d="M268.865 417.856H267.733V427.064H268.865V417.856Z" fill="#898989"/>
<path d="M270.592 417.885V427.004C270.444 427.034 270.324 427.034 270.175 427.034H269.491V417.826H270.175C270.324 417.856 270.473 417.885 270.592 417.885Z" fill="#898989"/>
<path d="M272.141 418.75V426.17C271.873 426.498 271.486 426.766 271.009 426.915V418.005C271.486 418.154 271.873 418.392 272.141 418.75Z" fill="#898989"/>
<path d="M275.625 410.674V415.859C275.625 416.276 275.477 416.664 275.209 416.962C274.94 417.289 274.553 417.558 274.077 417.707C273.928 417.766 273.779 417.796 273.63 417.796C273.571 417.796 273.541 417.796 273.481 417.826C273.451 417.826 273.422 417.826 273.392 417.826C273.362 417.826 273.332 417.826 273.303 417.826C273.273 417.826 273.213 417.826 273.183 417.826H174.816C173.535 417.826 172.493 416.991 172.433 415.919C172.433 415.889 172.433 415.859 172.433 415.829V410.644C172.433 410.614 172.433 410.584 172.433 410.555C172.493 409.512 173.535 408.647 174.816 408.647H273.243C273.392 408.647 273.541 408.647 273.66 408.677C273.809 408.707 273.958 408.737 274.107 408.767C274.553 408.916 274.94 409.184 275.238 409.512C275.477 409.869 275.625 410.257 275.625 410.674Z" fill="#9F9F9F"/>
<path d="M227.29 417.885H174.578C173.446 417.885 172.523 417.051 172.463 415.978C172.463 415.948 172.463 415.919 172.463 415.889V410.704C172.463 410.674 172.463 410.644 172.463 410.614C172.523 409.571 173.446 408.707 174.578 408.707H220.828C221.572 411.389 223.27 415.114 227.29 417.885C227.29 417.856 227.29 417.856 227.29 417.885Z" fill="#898989"/>
<path d="M263.683 408.677H262.551V417.885H263.683V408.677Z" fill="#898989"/>
<path d="M259.901 408.677H258.769V417.885H259.901V408.677Z" fill="#898989"/>
<path d="M255.344 408.677H254.213V417.885H255.344V408.677Z" fill="#898989"/>
<path d="M248.376 408.677H247.244V417.885H248.376V408.677Z" fill="#898989"/>
<path d="M241.02 408.677H239.888V417.885H241.02V408.677Z" fill="#898989"/>
<path d="M229.733 408.677H228.601V417.885H229.733V408.677Z" fill="#898989"/>
<path d="M219.16 408.677H218.028V417.885H219.16V408.677Z" fill="#898989"/>
<path d="M209.749 408.677H208.618V417.885H209.749V408.677Z" fill="#898989"/>
<path d="M267.287 408.677H266.155V417.885H267.287V408.677Z" fill="#898989"/>
<path d="M269.669 408.677H268.538V417.885H269.669V408.677Z" fill="#898989"/>
<path d="M271.962 408.677H270.831V417.885H271.962V408.677Z" fill="#898989"/>
<path d="M273.69 408.707V417.826C273.541 417.856 273.422 417.856 273.273 417.856H272.588V408.647H273.273C273.392 408.677 273.541 408.677 273.69 408.707Z" fill="#898989"/>
<path d="M275.238 409.571V416.991C274.97 417.319 274.583 417.587 274.107 417.736V408.796C274.583 408.975 274.97 409.214 275.238 409.571Z" fill="#898989"/>
<path d="M199.817 495.353C218.088 477.071 218.088 447.429 199.817 429.147C181.546 410.864 151.923 410.864 133.652 429.147C115.381 447.429 115.381 477.071 133.652 495.353C151.923 513.636 181.546 513.636 199.817 495.353Z" fill="#787878"/>
<path d="M195.737 495.353C214.008 477.07 214.008 447.428 195.737 429.146C177.466 410.863 147.843 410.863 129.572 429.146C111.301 447.428 111.301 477.07 129.572 495.353C147.843 513.635 177.466 513.635 195.737 495.353Z" fill="#9F9F9F"/>
<path d="M162.665 505.468C151.289 505.468 140.567 501.027 132.527 492.981C124.486 484.935 120.048 474.207 120.048 462.824C120.048 451.44 124.486 440.712 132.527 432.666C140.567 424.62 151.289 420.18 162.665 420.18C174.042 420.18 184.763 424.62 192.804 432.666C200.845 440.712 205.282 451.44 205.282 462.824C205.282 474.207 200.845 484.935 192.804 492.981C184.733 501.027 174.042 505.468 162.665 505.468ZM162.665 422.713C140.567 422.713 122.58 440.712 122.58 462.824C122.58 484.935 140.567 502.935 162.665 502.935C184.763 502.935 202.751 484.935 202.751 462.824C202.721 440.712 184.763 422.713 162.665 422.713Z" fill="#898989"/>
<path d="M168.532 475.191C168.651 474.267 168.621 473.433 168.443 472.717C168.264 471.972 167.907 471.287 167.4 470.661C166.864 470.035 166.179 469.41 165.316 468.814C164.452 468.218 163.35 467.622 162.07 466.996C159.866 465.923 157.87 464.82 156.084 463.718C154.297 462.615 152.808 461.393 151.616 460.082C150.425 458.771 149.532 457.281 148.966 455.642C148.4 454.003 148.251 452.096 148.519 449.95C148.728 448.103 149.264 446.434 150.127 444.974C150.961 443.513 152.063 442.292 153.433 441.308C154.803 440.325 156.381 439.55 158.168 439.043C159.955 438.537 161.921 438.298 164.065 438.358L164.899 431.325L170.557 432.011L169.723 439.133C171.719 439.639 173.506 440.384 175.054 441.398C176.603 442.411 177.883 443.633 178.896 445.063C179.909 446.493 180.593 448.132 181.01 449.95C181.427 451.798 181.517 453.794 181.249 456L170.944 454.748C171.242 452.126 170.915 450.099 169.902 448.639C168.889 447.209 167.4 446.374 165.465 446.136C164.392 446.017 163.469 446.046 162.665 446.255C161.861 446.464 161.176 446.791 160.64 447.238C160.074 447.685 159.657 448.252 159.33 448.937C159.002 449.622 158.794 450.338 158.704 451.172C158.615 451.977 158.645 452.722 158.794 453.407C158.943 454.092 159.3 454.748 159.806 455.374C160.312 456 161.027 456.625 161.921 457.221C162.814 457.817 163.946 458.473 165.286 459.158C167.46 460.291 169.455 461.393 171.212 462.526C172.969 463.658 174.459 464.88 175.68 466.191C176.871 467.532 177.764 469.022 178.33 470.661C178.896 472.3 179.045 474.178 178.777 476.323C178.539 478.26 178.003 479.929 177.169 481.389C176.305 482.849 175.203 484.041 173.863 485.025C172.493 486.008 170.915 486.723 169.098 487.2C167.281 487.677 165.316 487.886 163.171 487.826L162.397 494.352L156.768 493.697L157.543 487.2C155.607 486.783 153.761 486.127 152.033 485.233C150.276 484.369 148.787 483.207 147.507 481.806C146.226 480.406 145.303 478.707 144.677 476.711C144.052 474.714 143.903 472.419 144.201 469.797L154.416 471.019C154.237 472.568 154.297 473.909 154.594 474.982C154.892 476.085 155.399 476.979 156.054 477.694C156.709 478.409 157.483 478.946 158.377 479.303C159.27 479.661 160.223 479.899 161.176 480.018C162.278 480.138 163.261 480.138 164.154 479.929C165.018 479.75 165.762 479.422 166.388 479.005C167.013 478.558 167.52 478.022 167.877 477.366C168.204 476.74 168.413 475.995 168.532 475.191Z" fill="#898989"/>
<path d="M248.673 397.979C243.879 406.323 237.863 409.541 237.863 409.541H212.787C212.787 409.541 252.337 391.632 248.673 397.979Z" fill="#434343"/>
<path d="M229.435 462.526C228.78 463.271 228.69 464.105 229.018 464.999C229.613 466.638 231.579 468.486 233.872 470.333C234.17 470.572 234.438 470.78 234.646 470.989C234.706 471.049 234.766 471.108 234.825 471.138C234.885 471.168 234.914 471.227 234.974 471.257C237.118 473.224 236.314 473.671 240.156 477.694C244.534 482.253 247.542 482.343 248.405 481.926C249.12 481.568 247.661 479.154 246.023 476.442C245.934 476.323 245.874 476.174 245.785 476.055C245.576 475.697 245.338 475.34 245.129 474.952C243.223 471.674 243.7 470.155 244.147 465.267C244.504 461.304 250.311 443.156 250.311 443.156L241.913 441.696C241.913 441.696 239.382 456.149 236.612 458.384C235.123 459.576 233.455 459.576 232.026 460.47C231.936 460.529 231.817 460.589 231.728 460.648C230.924 461.215 230.09 461.781 229.435 462.526Z" fill="#BEBEBE"/>
<path d="M229.435 462.526C228.78 463.271 228.69 464.105 229.018 464.999C229.762 466.638 231.668 468.486 233.902 470.333C234.2 470.572 234.438 470.78 234.676 470.989C234.736 471.049 234.795 471.108 234.855 471.138C234.914 471.168 234.944 471.227 235.004 471.257C237.148 473.224 236.344 473.671 240.186 477.694C244.564 482.253 247.572 482.343 248.435 481.926C249.15 481.568 247.691 479.154 246.053 476.442C245.189 476.144 241.228 474.505 238.25 470.691C235.599 467.324 233.842 463.003 232.055 460.47C231.966 460.529 231.847 460.589 231.758 460.648C230.924 461.215 230.09 461.781 229.435 462.526Z" fill="#434343"/>
<path d="M297.157 457.281C297.664 459.874 301.356 459.456 305.496 458.443C309.636 457.43 308.653 458.622 314.52 457.996C320.387 457.37 322.174 455.165 322.352 454.271C322.501 453.496 319.612 453.228 316.485 452.871C316.098 452.841 315.711 452.781 315.294 452.722C311.78 452.275 309.189 450.01 306.002 448.132C302.965 446.374 298.468 439.163 298.468 439.163L290.397 439.788C290.397 439.788 294.626 446.225 296.264 448.997C297.217 450.636 297.187 452.811 297.068 454.48C297.008 455.433 296.949 456.357 297.157 457.281Z" fill="#BEBEBE"/>
<path d="M305.496 458.443C309.636 457.43 308.653 458.622 314.52 457.996C320.387 457.37 322.174 455.165 322.352 454.271C322.501 453.496 319.612 453.228 316.485 452.871L316.456 452.93C316.456 452.93 312.941 455.433 308.027 455.553C304.037 455.642 299.808 454.51 297.068 454.539C297.008 455.463 296.949 456.387 297.128 457.311C297.664 459.874 301.356 459.456 305.496 458.443Z" fill="#434343"/>
<path d="M266.274 405.727L258.739 426.021L248.912 452.513C248.912 452.513 246.231 452.781 243.7 452.036C241.347 451.351 238.637 449.563 238.637 449.563C238.637 449.563 241.377 421.134 246.47 404.803C247.78 400.601 249.239 397.234 250.847 395.327C258.739 385.97 266.274 405.727 266.274 405.727Z" fill="#434343"/>
<path d="M258.62 373.513C253.677 371.934 239.62 373.96 225.474 376.732L222.525 371.844L192 369.46C192 369.46 181.934 391.81 187.443 406.085C188.247 408.171 190.272 409.065 193.012 409.094C193.012 409.094 211.238 409.541 217.135 409.541C232.323 409.541 249.269 399.082 251.473 398.664C255.076 397.949 256.506 405.131 260.08 412.67C263.683 420.21 293.822 446.076 293.822 446.076C293.822 446.076 298.468 446.136 300.374 445.391C302.429 444.616 303.173 443.603 303.173 443.603C303.173 443.603 269.729 377.119 258.62 373.513Z" fill="#5B5B5B"/>
<path d="M219.25 282.117C216.956 280.746 214.723 280.567 213.383 280.597C212.4 280.627 211.447 280.537 210.464 280.418C198.879 278.868 191.94 295.676 191.523 300.801C190.779 310.188 185.805 311.619 178.807 317.519C164.78 329.32 168.889 343.028 176.573 348.124C181.159 351.193 189.29 348.124 189.29 348.124C189.409 348.213 211.477 335.786 222.347 329.797C238.607 327.442 225.801 286.02 219.25 282.117Z" fill="#434343"/>
<path d="M213.204 324.671C213.264 324.701 207.843 326.548 204.24 324.939C200.845 323.449 198.284 317.847 198.313 317.847C199.862 317.787 201.559 316.416 202.87 307.566L203.525 307.804L214.574 311.797C214.574 311.797 213.77 315.344 213.264 318.741C212.847 321.542 212.608 324.284 213.204 324.671Z" fill="#BEBEBE"/>
<path d="M214.604 311.768C214.604 311.768 213.8 315.314 213.293 318.711C206.95 317.579 204.448 311.231 203.555 307.804L214.604 311.768Z" fill="#A5A5A5"/>
<path d="M216.242 315.314C216.242 315.314 201.113 313.287 202.512 303.871C203.912 294.454 202.929 287.868 212.638 288.762C222.347 289.656 223.687 293.53 223.985 296.778C224.283 300.026 220.203 315.582 216.242 315.314Z" fill="#BEBEBE"/>
<path d="M223.449 291.623C223.449 291.623 213.77 299.967 207.158 300.652C200.577 301.338 198.075 299.222 198.075 299.222C198.075 299.222 201.947 296.003 204.299 290.788C204.984 289.239 206.444 288.196 208.111 288.047C212.817 287.63 221.751 287.451 223.449 291.623Z" fill="#434343"/>
<path d="M217.373 290.878C217.373 290.878 220.62 294.007 221.632 296.331C222.615 298.566 222.913 303.93 222.138 306.076C222.138 306.076 227.201 296.242 224.342 291.474C221.304 286.408 217.373 290.878 217.373 290.878Z" fill="#434343"/>
<path d="M225.95 346.991C225.504 377.655 225.831 371.248 222.466 374.139C221.662 374.824 219.398 375.271 216.391 375.45C207.009 376.076 190.481 374.526 189.855 372.798C187.681 366.778 189.23 364.931 187.413 355.723C187.235 354.739 186.996 353.696 186.728 352.534C185.21 346.216 183.75 344.071 189.111 333.909C193.965 324.701 198.998 317.251 199.445 317.519C212.251 325.118 213.264 318.741 213.264 318.741C213.264 318.741 226.159 332.032 225.95 346.991Z" fill="white"/>
<path d="M258.739 426.021L248.912 452.513C248.912 452.513 246.231 452.781 243.7 452.036C241.347 451.351 238.637 449.563 238.637 449.563C238.637 449.563 241.377 421.134 246.47 404.803L258.739 426.021Z" fill="#5B5B5B"/>
<path d="M213.264 318.711C213.264 318.711 226.427 320.946 227.975 326.608C229.524 332.27 238.607 365.616 238.607 365.616C238.607 365.616 231.907 366.808 228.809 363.739C225.712 360.64 218.058 335.041 218.058 335.041L213.264 318.711Z" fill="white"/>
<path d="M216.391 375.45C207.009 376.076 190.481 374.526 189.855 372.798C187.681 366.778 189.23 364.931 187.413 355.723L191.94 342.968C191.94 342.968 191.196 357.183 195.395 360.908C199.594 364.633 212.549 368.119 214.574 371.248C215.557 372.738 216.212 374.228 216.391 375.45Z" fill="#EBF3FF"/>
<path d="M205.64 369.46C205.64 369.46 214.901 367.404 216.391 368.209C217.88 369.043 221.543 372.023 221.989 373.066C222.436 374.109 218.654 372.262 217.433 371.934C216.629 371.725 214.544 372.44 213.502 372.798C209.124 374.258 206.444 373.513 206.444 373.513L205.64 369.46Z" fill="#BEBEBE"/>
<path d="M199.445 317.489C199.445 317.489 186.996 318.264 182.708 324.254C176.633 332.717 164.631 368.775 171.51 373.603C179.283 379.026 206.831 375.033 206.831 375.033C206.831 375.033 207.754 370.742 206.473 368.656C205.193 366.57 184.465 363.232 183.482 362.279C182.529 361.325 195.454 343.594 195.454 340.733C195.454 337.872 199.445 317.489 199.445 317.489Z" fill="white"/>
<path d="M216.867 370.801C216.867 370.801 218.803 373.305 219.458 373.603C220.113 373.901 220.5 373.841 220.5 373.841L219.19 371.487L216.867 370.801Z" fill="#BEBEBE"/>
<path d="M216.391 368.239L222.049 370.98C222.049 370.98 221.811 371.368 221.126 371.338C220.441 371.308 218.684 370.652 218.684 370.652L216.391 368.239Z" fill="#BEBEBE"/>
<path d="M219.428 377.447H264.07L277.531 344.041H232.919L219.428 377.447Z" fill="#A0A0A0"/>
<path d="M264.606 376.136H205.64V377.447H264.07L264.606 376.136Z" fill="#8C8C8C"/>
<path d="M252.813 360.729C253.141 359.567 252.485 358.613 251.294 358.613C250.133 358.613 248.882 359.567 248.554 360.729C248.227 361.891 248.882 362.845 250.073 362.845C251.264 362.845 252.485 361.921 252.813 360.729Z" fill="white"/>
<path d="M475.666 380.665C475.666 380.486 476.649 360.222 466.881 355.544L467.566 354.888C472.033 356.468 477.006 361.295 479.002 368.119C480.491 373.185 479.359 374.318 479.359 374.497L475.666 380.665Z" fill="#D0D0D0"/>
<path d="M450.114 340.525C450.114 340.525 448.982 350.955 454.462 355.395C459.912 359.835 469.889 356.587 469.889 356.587C469.889 356.587 471.02 346.157 465.54 341.717C460.09 337.276 450.114 340.525 450.114 340.525Z" fill="#D0D0D0"/>
<path d="M473.998 418.66C473.82 417.647 470.276 393.777 479.299 367.166C487.966 341.597 483.171 319.933 483.141 319.724H489.514C489.693 320.648 490.11 341.925 483.32 371.07C477.215 397.294 488.621 418.66 486.209 418.66H473.998Z" fill="#D0D0D0"/>
<path d="M487.4 348.213C487.43 348.064 490.467 330.601 498.687 328.605C495.024 329.081 490.378 331.704 487.757 336.591C485.822 340.227 486.507 341.24 486.477 341.389L487.4 348.213Z" fill="#D0D0D0"/>
<path d="M454.611 301.814C454.611 301.814 445.766 289.328 435.729 285.663C435.729 285.663 439.482 314.956 434.002 315.314C428.522 315.671 432.185 282.355 432.185 282.355C432.185 282.355 406.038 267.813 395.406 268.23C395.406 268.23 410.445 297.493 405.025 296.51C399.605 295.497 382.54 265.786 382.54 265.786C382.54 265.786 355.231 259.051 349.87 275.173C344.48 291.265 351.151 299.877 355.201 301.129C359.221 302.381 385.488 303.602 384.595 306.97C383.702 310.337 365.684 314.748 355.975 311.112C355.975 311.112 365.297 338.677 379.681 338.17C394.065 337.634 399.009 329.052 407.914 328.873C416.818 328.724 423.132 331.465 418.575 333.611C414.019 335.727 399.099 333.253 391.594 338.915C384.089 344.577 378.073 348.004 391.206 351.491C404.34 354.978 424.145 351.044 433.555 344.756C433.585 344.726 441.239 344.13 447.285 379.652C449.607 393.36 447.821 413.684 447.821 413.684L452.705 412.939C455.415 373.096 441.031 339.988 441.031 339.988C441.031 339.988 465.392 321.959 454.611 301.814Z" fill="#D0D0D0"/>
<path d="M534.305 354.382C534.305 354.382 504.941 342.044 515.454 319.575C515.454 319.575 524.299 305.51 534.99 300.95C534.99 300.95 532.638 332.926 538.624 333.015C544.61 333.104 538.683 297.195 538.683 297.195C538.683 297.195 566.201 279.911 577.726 279.703C577.726 279.703 563.134 312.334 568.941 310.933C574.748 309.533 591.485 276.276 591.485 276.276C591.485 276.276 620.671 267.366 627.461 284.501C634.251 301.636 627.521 311.35 623.232 312.96C618.944 314.569 590.532 317.4 591.694 321.006C592.855 324.611 612.66 328.336 622.964 323.807C622.964 323.807 614.477 354.262 598.841 354.531C583.206 354.799 577.339 345.769 567.69 346.127C558.041 346.485 551.34 349.852 556.403 351.878C561.496 353.905 577.488 350.359 585.976 356.05C594.464 361.742 601.164 365.11 587.137 369.669C573.11 374.228 547.141 375.331 540.708 364.841C534.305 354.382 534.305 354.382 534.305 354.382Z" fill="#E7E7E7"/>
<path d="M614.477 291.563C614.477 291.563 539.994 325.386 534.305 354.382C534.305 354.382 536.092 366.868 529.987 382.125L530.612 387.638C530.612 387.638 536.599 367.941 540.708 364.841C540.708 364.871 520.666 342.491 614.477 291.563Z" fill="#D0D0D0"/>
<path d="M529.987 382.125C529.987 382.125 520.1 401.585 529.391 422.892L532.37 421.73C532.37 421.73 526.652 397.77 531.506 384.837C536.36 371.904 529.987 382.125 529.987 382.125Z" fill="#D0D0D0"/>
<path d="M422.358 220.639C434.389 233.453 428.135 258.902 428.135 258.902C428.135 258.902 402.345 263.581 390.313 250.767C378.281 237.953 384.535 212.504 384.535 212.504C384.535 212.504 410.296 207.825 422.358 220.639Z" fill="#D0D0D0"/>
<path d="M422.358 220.639C434.389 233.453 428.135 258.902 428.135 258.902L384.535 212.504C384.535 212.504 410.296 207.825 422.358 220.639Z" fill="#E7E7E7"/>
<path d="M577.578 269.452C571.294 276.723 557.118 274.786 557.118 274.786C557.118 274.786 553.097 261.018 559.381 253.747C565.665 246.476 579.841 248.413 579.841 248.413C579.841 248.413 583.861 262.18 577.578 269.452Z" fill="#D0D0D0"/>
<path d="M503.333 333.522C499.134 334.684 494.25 330.363 494.25 330.363C494.25 330.363 496.215 324.135 500.414 322.972C504.613 321.81 509.498 326.131 509.498 326.131C509.498 326.131 507.562 332.33 503.333 333.522Z" fill="#D0D0D0"/>
<path d="M428.969 196.889C431.858 203.743 425.634 212.891 425.634 212.891C425.634 212.891 414.734 210.954 411.845 204.1C408.956 197.246 415.18 188.098 415.18 188.098C415.18 188.098 426.11 190.035 428.969 196.889Z" fill="#D0D0D0"/>
<path d="M532.362 300.208C557.448 275.106 557.448 234.407 532.362 209.305C507.275 184.203 466.602 184.203 441.516 209.305C416.43 234.407 416.43 275.106 441.516 300.208C466.602 325.31 507.275 325.31 532.362 300.208Z" fill="#787878"/>
<path d="M526.806 300.926C551.892 275.824 551.892 235.125 526.806 210.023C501.72 184.921 461.047 184.921 435.96 210.023C410.874 235.125 410.874 275.824 435.96 300.926C461.047 326.028 501.72 326.028 526.806 300.926Z" fill="#9F9F9F"/>
<path d="M488.8 314.33C473.284 316.297 457.946 312.066 445.617 302.5C433.258 292.904 425.395 279.077 423.43 263.551C421.464 248.025 425.693 232.678 435.253 220.341C444.843 207.974 458.661 200.107 474.177 198.14C489.693 196.173 505.03 200.405 517.36 209.971C529.719 219.566 537.581 233.394 539.547 248.919C541.512 264.445 537.284 279.792 527.724 292.129C518.104 304.496 504.286 312.364 488.8 314.33ZM474.594 201.597C444.485 205.382 423.072 232.976 426.884 263.104C430.667 293.232 458.244 314.658 488.353 310.844C518.462 307.059 539.875 279.464 536.062 249.337C532.28 219.209 504.703 197.812 474.594 201.597Z" fill="#898989"/>
<path d="M491.599 272.074C491.599 270.793 491.391 269.69 491.033 268.707C490.676 267.753 490.08 266.859 489.246 266.084C488.413 265.309 487.37 264.594 486.09 263.939C484.809 263.283 483.231 262.657 481.354 262.031C478.168 260.929 475.249 259.767 472.628 258.575C470.008 257.353 467.774 255.982 465.898 254.373C464.022 252.793 462.562 250.916 461.52 248.77C460.478 246.625 459.942 244.062 459.912 241.112C459.882 238.549 460.329 236.195 461.222 234.049C462.116 231.933 463.396 230.056 465.094 228.477C466.762 226.897 468.787 225.586 471.139 224.603C473.492 223.589 476.143 222.964 479.061 222.666L479.002 212.951L486.834 212.891L486.894 222.755C489.693 223.113 492.254 223.828 494.518 224.93C496.811 226.033 498.747 227.463 500.355 229.251C501.963 231.039 503.214 233.125 504.077 235.569C504.971 238.013 505.418 240.724 505.418 243.764L491.301 243.853C491.271 240.218 490.438 237.506 488.829 235.718C487.191 233.93 485.047 233.036 482.337 233.066C480.878 233.066 479.597 233.304 478.555 233.721C477.513 234.139 476.619 234.705 475.964 235.42C475.279 236.135 474.773 236.97 474.475 237.953C474.147 238.936 473.998 239.979 473.998 241.082C473.998 242.214 474.177 243.228 474.505 244.122C474.832 245.016 475.398 245.85 476.202 246.625C477.006 247.4 478.078 248.115 479.389 248.77C480.699 249.456 482.367 250.141 484.303 250.856C487.459 252.019 490.348 253.211 492.939 254.432C495.53 255.654 497.764 257.085 499.64 258.664C501.516 260.273 502.975 262.151 504.018 264.296C505.06 266.442 505.596 268.975 505.626 271.925C505.656 274.577 505.209 276.991 504.286 279.107C503.363 281.223 502.082 283.07 500.385 284.62C498.687 286.169 496.662 287.421 494.279 288.375C491.897 289.328 489.246 289.954 486.298 290.252L486.358 299.281L478.585 299.341L478.525 290.341C475.815 290.103 473.194 289.507 470.663 288.613C468.131 287.719 465.898 286.438 463.902 284.739C461.937 283.04 460.359 280.895 459.167 278.302C457.976 275.71 457.38 272.581 457.351 268.945L471.467 268.856C471.497 271.001 471.795 272.789 472.42 274.22C473.045 275.65 473.849 276.812 474.862 277.647C475.875 278.511 477.036 279.107 478.317 279.435C479.597 279.762 480.908 279.941 482.248 279.941C483.767 279.941 485.107 279.733 486.268 279.315C487.43 278.928 488.383 278.362 489.157 277.647C489.931 276.931 490.527 276.127 490.884 275.173C491.42 274.249 491.599 273.206 491.599 272.074Z" fill="#898989"/>
<path d="M538.177 412.462V412.521L532.131 505.289H443.264L438.023 433.203L436.563 413.326L436.504 412.462H538.177Z" fill="#B2B2B2"/>
<path d="M538.177 412.521L536.896 432.219C530.196 429.895 511.582 424.263 487.34 424.263C456.725 424.263 438.023 433.203 438.023 433.203L436.593 413.326L538.177 412.521Z" fill="#9D9D9D"/>
<path d="M541.274 422.862H433.287L432.037 410.316H542.644L541.274 422.862Z" fill="#B2B2B2"/>
<path d="M533.501 509.193H441.328L440.286 504.812H534.693L533.501 509.193Z" fill="#9D9D9D"/>
<path d="M374.082 468.486C373.993 468.039 372.415 457.281 376.465 445.331C380.366 433.828 378.192 424.084 378.192 423.994H381.051C381.111 424.412 381.319 433.977 378.281 447.089C375.542 458.89 380.664 468.486 379.562 468.486H374.082Z" fill="#D0D0D0"/>
<path d="M380.098 436.779C380.128 436.719 381.498 428.852 385.161 427.958C383.523 428.166 381.408 429.358 380.247 431.564C379.383 433.203 379.681 433.65 379.651 433.739L380.098 436.779Z" fill="#D0D0D0"/>
<path d="M373.278 434.931C373.278 434.931 369.675 429.06 365.267 427.123C365.267 427.123 366.101 440.384 363.629 440.384C361.157 440.384 363.748 425.544 363.748 425.544C363.748 425.544 352.431 418.273 347.637 418.124C347.637 418.124 353.533 431.713 351.151 431.087C348.738 430.491 341.948 416.634 341.948 416.634C341.948 416.634 329.887 412.819 326.998 419.882C324.109 426.945 326.849 430.997 328.636 431.683C330.393 432.368 342.157 433.65 341.651 435.14C341.144 436.63 332.925 438.09 328.696 436.153C328.696 436.153 332.091 448.788 338.553 448.967C345.016 449.146 347.488 445.421 351.508 445.629C355.499 445.808 358.268 447.238 356.154 448.073C354.04 448.907 347.428 447.358 343.884 449.682C340.34 452.006 337.541 453.377 343.348 455.314C349.126 457.281 358.149 456.059 362.557 453.526C362.557 453.526 366.041 453.467 367.709 469.588C368.364 475.817 366.965 484.876 366.965 484.876L369.168 484.697C371.521 466.906 366.041 451.619 366.041 451.619C366.041 451.619 377.537 444.288 373.278 434.931Z" fill="#D0D0D0"/>
<path d="M387.275 430.163C385.369 430.699 383.195 428.733 383.195 428.733C383.195 428.733 384.059 425.931 385.965 425.425C387.871 424.918 390.045 426.855 390.045 426.855C390.045 426.855 389.152 429.656 387.275 430.163Z" fill="#D0D0D0"/>
<path d="M409.045 387.43C402.434 391.751 402.494 403.552 402.494 403.552C402.494 403.552 413.274 408.32 419.886 403.969C426.497 399.648 426.438 387.847 426.438 387.847C426.438 387.847 415.657 383.109 409.045 387.43Z" fill="#D0D0D0"/>
<path d="M409.045 387.43C402.434 391.751 402.494 403.552 402.494 403.552L426.438 387.847C426.438 387.877 415.657 383.109 409.045 387.43Z" fill="#E7E7E7"/>
<path d="M408.658 376.344C406.663 379.026 408.42 383.705 408.42 383.705C408.42 383.705 413.394 384.003 415.389 381.321C417.384 378.639 415.627 373.96 415.627 373.96C415.627 373.96 410.654 373.662 408.658 376.344Z" fill="#D0D0D0"/>
<path d="M400.316 415.2C411.597 403.912 411.597 385.61 400.316 374.322C389.035 363.033 370.744 363.033 359.463 374.322C348.182 385.61 348.182 403.912 359.463 415.2C370.744 426.489 389.035 426.489 400.316 415.2Z" fill="#787878"/>
<path d="M379.277 423.913C395.198 422.874 407.262 409.116 406.223 393.185C405.184 377.255 391.435 365.183 375.515 366.223C359.594 367.263 347.53 381.02 348.569 396.951C349.608 412.882 363.357 424.953 379.277 423.913Z" fill="#9F9F9F"/>
<path d="M380.724 421.551C373.755 422.415 366.845 420.538 361.306 416.217C355.767 411.896 352.223 405.697 351.329 398.694C350.466 391.721 352.342 384.807 356.66 379.265C360.979 373.722 367.203 370.176 374.172 369.282C381.14 368.417 388.05 370.295 393.589 374.616C399.128 378.937 402.672 385.165 403.566 392.138C404.459 399.111 402.553 406.025 398.235 411.568C393.917 417.111 387.692 420.657 380.724 421.551ZM374.35 370.831C360.8 372.53 351.181 384.956 352.878 398.486C354.576 412.045 366.994 421.67 380.515 419.971C394.065 418.273 403.685 405.846 401.987 392.317C400.29 378.758 387.871 369.133 374.35 370.831Z" fill="#898989"/>
<path d="M381.974 402.538C381.974 401.972 381.885 401.466 381.736 401.019C381.557 400.572 381.319 400.184 380.932 399.827C380.575 399.469 380.098 399.141 379.503 398.843C378.907 398.545 378.222 398.247 377.388 397.979C375.958 397.472 374.648 396.966 373.457 396.429C372.266 395.893 371.283 395.267 370.419 394.552C369.585 393.837 368.93 393.002 368.454 392.019C367.977 391.065 367.739 389.903 367.739 388.562C367.739 387.4 367.918 386.357 368.335 385.403C368.751 384.45 369.317 383.615 370.062 382.9C370.806 382.185 371.73 381.619 372.772 381.142C373.844 380.695 375.006 380.397 376.346 380.278L376.316 375.897L379.83 375.867L379.86 380.308C381.111 380.457 382.272 380.784 383.285 381.291C384.327 381.798 385.191 382.423 385.905 383.228C386.62 384.033 387.186 384.986 387.573 386.059C387.96 387.162 388.169 388.383 388.169 389.754L381.825 389.814C381.825 388.175 381.438 386.953 380.724 386.148C379.979 385.344 379.026 384.956 377.805 384.956C377.15 384.956 376.584 385.046 376.107 385.254C375.631 385.433 375.244 385.701 374.946 386.029C374.648 386.357 374.41 386.744 374.261 387.162C374.112 387.609 374.053 388.056 374.053 388.562C374.053 389.069 374.142 389.516 374.291 389.933C374.44 390.35 374.708 390.708 375.065 391.065C375.422 391.423 375.899 391.721 376.495 392.049C377.09 392.347 377.835 392.675 378.698 392.973C380.128 393.479 381.408 394.016 382.6 394.582C383.761 395.118 384.774 395.774 385.608 396.489C386.442 397.204 387.097 398.068 387.573 399.022C388.05 399.976 388.288 401.138 388.288 402.449C388.288 403.641 388.109 404.714 387.692 405.667C387.275 406.621 386.71 407.455 385.935 408.141C385.191 408.826 384.267 409.392 383.195 409.839C382.123 410.257 380.932 410.555 379.622 410.674L379.651 414.727L376.167 414.756L376.137 410.704C374.916 410.584 373.755 410.346 372.593 409.929C371.462 409.541 370.449 408.945 369.556 408.171C368.662 407.396 367.947 406.442 367.411 405.28C366.875 404.118 366.607 402.717 366.577 401.078L372.921 401.019C372.921 401.972 373.07 402.807 373.338 403.432C373.606 404.088 373.993 404.595 374.44 404.982C374.886 405.369 375.422 405.638 375.988 405.787C376.554 405.936 377.15 406.025 377.745 405.995C378.43 405.995 379.026 405.906 379.562 405.727C380.068 405.548 380.515 405.31 380.872 404.982C381.23 404.654 381.468 404.297 381.647 403.85C381.915 403.522 381.974 403.045 381.974 402.538Z" fill="#898989"/>
<path d="M402.94 465.685V465.714L402.374 474.565L400.23 507.434H360.234L357.226 466.072L357.196 465.685H402.94Z" fill="#D6D6D6"/>
<path d="M402.94 465.714L402.374 474.565C399.367 473.522 390.998 470.989 380.098 470.989C366.339 470.989 357.911 475.012 357.911 475.012L357.256 466.072L402.94 465.714Z" fill="#C3C3C3"/>
<path d="M404.34 470.363H355.767L355.201 464.731H404.936L404.34 470.363Z" fill="#D6D6D6"/>
<path d="M400.826 509.193H359.37L358.894 507.226H401.362L400.826 509.193Z" fill="#D6D6D6"/>
<path d="M567.69 340.197C567.69 340.197 563.134 339.303 562.091 340.197C561.049 341.091 556.105 346.127 557.148 347.766C558.22 349.405 563.283 346.395 564.355 346.127C565.427 345.859 568.375 344.697 568.375 344.697L567.69 340.197Z" fill="#BEBEBE"/>
<path d="M616.234 501.743L621.118 503.56C621.118 503.56 642.382 474.058 645.002 448.103C645.479 443.454 645.3 438.984 644.317 434.842C644.317 434.842 644.526 433.65 644.883 431.564C645.062 430.58 645.27 429.418 645.509 428.047C646.194 424.084 647.147 418.66 648.248 412.492C650.75 398.277 653.996 380.129 656.498 366.778L655.188 366.361L640.922 361.742L637.974 352.355L627.342 349.554C627.342 349.554 624.96 354.203 622.845 376.136C622.458 379.026 622.101 382.185 621.833 385.642C620.999 396.161 620.939 409.184 622.845 424.084C623.322 427.898 623.947 431.832 624.721 435.885C625.287 438.865 625.376 442.888 625.138 447.536C624.007 468.754 616.234 501.743 616.234 501.743Z" fill="#5B5B5B"/>
<path d="M621.803 385.642L644.883 431.534C645.062 430.55 645.27 429.388 645.509 428.017C646.194 424.054 647.147 418.63 648.248 412.462C650.75 398.247 653.996 380.099 656.498 366.749L655.188 366.331L640.922 361.712L637.974 352.325L627.342 349.524C627.342 349.524 624.96 354.173 622.845 376.106C622.428 378.996 622.071 382.185 621.803 385.642Z" fill="#434343"/>
<path d="M631.958 355.425L632.494 350.835C641.429 353.219 665.343 344.19 665.343 344.19C665.343 344.19 674.009 351.819 672.878 370.086C672.312 378.996 671.299 416.932 670.257 428.137C669.87 432.189 669.542 435.11 669.393 436.242C669.363 436.6 669.483 436.928 669.661 437.226C671.21 439.878 672.52 442.649 673.563 445.45C683.956 473.194 671.954 507.345 671.954 507.345L668.827 506.093C668.827 506.093 662.007 468.069 656.438 451.291C655.485 448.43 654.592 446.195 653.758 444.854C651.346 440.951 649.112 434.573 647.057 427.004C643.215 412.67 640.118 394.045 638.063 379.682C637.825 379.741 631.958 355.425 631.958 355.425Z" fill="#5B5B5B"/>
<path d="M567.69 340.197L568.345 344.697C568.345 344.697 568.643 344.697 569.149 344.667C570.787 344.548 574.748 344.339 579.216 343.862C585.946 343.207 593.957 342.015 597.144 340.048C601.998 337.068 609.95 328.009 615.162 318.92C615.31 318.711 615.43 318.473 615.519 318.264C618.229 313.436 620.105 308.668 620.254 304.854C620.373 302.53 620.105 300.503 619.629 298.775C619.003 296.48 617.961 294.662 616.889 293.292C616.74 293.083 616.591 292.845 616.383 292.666C614.596 290.55 612.868 289.656 612.868 289.656C611.975 289.298 611.022 289.716 610.009 290.818V290.848C609.205 291.712 608.312 292.994 607.448 294.633C607.418 294.662 607.389 294.692 607.389 294.752C607.21 295.08 607.031 295.467 606.793 295.854C606.733 295.914 606.674 296.033 606.644 296.123C606.227 296.987 605.84 297.851 605.423 298.805C600.867 308.728 596.012 323.777 591.962 328.277C590.235 330.214 582.253 333.998 575.91 336.8C571.413 338.707 567.69 340.197 567.69 340.197Z" fill="#BEBEBE"/>
<path d="M614.834 299.818C617.633 301.129 621.028 302.023 625.138 302.232C640.535 303.066 644.02 289.567 644.645 280.627C642.441 279.822 640.476 279.911 639.374 279.971C638.272 280.031 637.14 280.15 636.217 280.269C634.341 279.286 630.946 274.518 629.01 266.501L628.355 266.799L617.246 272.014C617.246 272.014 618.438 275.62 619.301 279.077C619.986 281.789 620.463 284.411 620.046 285.126C619.182 285.484 618.646 285.693 618.646 285.693C618.527 286.02 616.115 292.189 614.834 299.818Z" fill="#BEBEBE"/>
<path d="M610.992 309.92C611.111 310.218 611.23 310.516 611.379 310.844C615.281 319.247 622.488 354.024 622.488 354.024C621.475 360.282 669.453 352.802 669.572 347.11C671.269 341.061 663.586 331.376 659.238 326.519C658.702 325.893 658.195 325.237 657.779 324.552C656.706 322.823 656.021 320.857 655.813 318.8C654.949 310.725 655.277 303.155 655.217 298.566C654.383 297.94 653.549 297.344 652.775 296.808C651.614 295.944 650.571 295.169 649.827 294.364C648.993 293.47 648.457 292.576 648.397 291.563C648.368 290.788 648.368 290.014 648.457 289.209C648.487 288.851 648.546 288.464 648.606 288.106C649.201 284.203 650.839 280.656 650.839 280.656C646.7 278.988 639.374 279.971 639.374 279.971C639.374 279.971 639.374 280.388 639.374 281.044C639.403 283.726 639.374 290.61 638.51 291.921C637.438 293.53 617.782 300.652 616.74 298.447C615.727 296.272 618.527 286.14 618.616 285.752C612.034 288.345 609.682 290.52 609.682 290.52C613.672 293.083 607.925 301.785 610.992 309.92Z" fill="#A0A0A0"/>
<path d="M624.245 237.357C624.275 236.701 624.781 229.49 635.74 229.132C635.74 229.132 630.35 229.788 629.427 232.142C629.427 232.142 633.09 229.222 636.068 230.145C639.046 231.099 640.803 236.314 640.833 238.042C640.863 239.771 639.195 245.314 637.289 245.79C636.574 245.969 635.74 245.91 634.996 245.79C635.502 246.565 636.008 247.459 636.455 248.413C640.833 257.383 636.306 266.144 632.613 265.19C630.231 264.564 629.576 268.617 629.576 268.617L606.525 249.962C606.555 249.962 615.013 232.44 624.245 237.357Z" fill="#484848"/>
<path d="M617.246 272.044C617.246 272.044 618.437 275.65 619.301 279.107C625.793 277.289 627.759 270.465 628.355 266.799L617.246 272.044Z" fill="#A6A6A6"/>
<path d="M615.876 275.859C615.876 275.859 631.392 272.253 629.01 262.627C626.627 253.002 627.014 246.029 617.008 247.906C607.001 249.784 605.989 253.956 605.989 257.353C606.019 260.78 611.766 276.544 615.876 275.859Z" fill="#BEBEBE"/>
<path d="M605.125 251.899C606.793 248.413 608.759 248.592 609.98 249.217C617.276 242.453 624.424 247.996 624.424 247.996C627.163 254.641 633.149 257.383 633.149 257.383C633.149 257.383 630.767 259.826 623.858 259.767C621.743 259.737 619.629 258.783 617.693 257.442C621.416 261.197 625.793 263.492 625.793 263.492C617.127 261.823 611.35 251.81 610.754 250.737C610.009 251.81 608.61 254.134 608.491 256.071C608.342 258.724 609.235 263.849 607.716 264.058C607.716 264.028 602.624 257.144 605.125 251.899Z" fill="#484848"/>
<path d="M609.712 290.49C609.712 290.49 605.959 297.017 605.423 298.685C605.423 298.685 610.277 298.507 612.243 302.232C612.213 302.232 612.69 291.384 609.712 290.49Z" fill="#A0A0A0"/>
<path d="M635.413 342.342C644.883 342.253 652.894 332.419 657.808 324.552C656.736 322.823 656.051 320.857 655.843 318.8C654.979 310.725 655.307 303.155 655.247 298.566C654.413 297.94 653.579 297.344 652.805 296.808C651.643 295.944 650.601 295.169 649.857 294.364C642.084 307.447 622.577 342.491 635.413 342.342Z" fill="#8C8C8C"/>
<path d="M599.646 347.498L600.956 352.236C600.956 352.236 602.594 351.938 605.185 351.461C605.959 351.312 606.406 351.193 606.406 351.193C608.491 350.776 610.962 350.239 613.672 349.643H613.702C618.318 348.541 623.53 347.2 627.878 345.71C630.946 344.637 633.626 343.475 635.443 342.342C635.621 342.223 635.77 342.134 635.949 341.985C640.297 338.826 645.419 329.558 649.44 319.635C650.006 318.264 650.512 316.893 651.018 315.552C652.865 310.576 654.354 305.688 655.247 301.457C655.813 298.924 656.17 296.629 656.26 294.752C656.289 294.096 656.349 293.441 656.289 292.874C656.23 282.117 650.869 280.656 650.869 280.656C650.75 280.627 650.661 280.597 650.512 280.537C649.589 280.388 648.636 281.014 647.623 282.236C646.372 283.756 645.032 286.229 643.662 289.239C641.548 294.007 639.314 300.205 637.259 306.374C636.098 309.741 634.996 313.109 633.894 316.238C633.268 318.115 632.643 319.903 632.047 321.542C630.886 324.641 629.873 327.174 628.95 328.783C628.355 329.826 626.657 331.257 624.394 332.896C620.463 335.757 614.715 339.184 609.712 342.015C607.627 343.207 605.661 344.279 604.053 345.173C601.373 346.574 599.646 347.498 599.646 347.498Z" fill="#BEBEBE"/>
<path d="M643.662 289.239C650.78 287.272 656.289 292.845 656.289 292.845C656.2 282.117 650.869 280.656 650.869 280.656C648.695 279.762 646.223 283.487 643.662 289.239Z" fill="#A0A0A0"/>
<path d="M653.847 509.967H678.506C678.506 509.967 679.102 506.213 677.821 503.352C676.6 500.61 674.664 499.359 675.111 496.051C673.533 497.66 671.001 499.478 667.428 499.001C666.981 499.716 664.598 503.501 663.139 504.544C661.531 505.706 654.324 505.289 653.847 509.967Z" fill="#434343"/>
<path d="M600.896 509.967H625.555C625.555 509.967 626.478 506.034 624.87 503.352C623.441 500.968 623.977 499.627 625.049 497.66C623.917 498.107 622.488 498.524 620.909 498.435C619.688 498.375 618.378 497.809 617.246 497.153C616.174 498.375 611.647 503.531 610.218 504.544C608.58 505.706 601.403 505.289 600.896 509.967Z" fill="#434343"/>
<path d="M598.156 369.49L592.289 355.186C591.515 353.309 589.49 352.355 587.584 352.862C585.648 349.196 582.968 346.246 579.93 344.16C576.744 341.955 573.14 340.763 569.626 340.763C567.75 340.763 565.903 341.121 564.116 341.866C555.778 345.293 552.055 355.812 555.122 366.153L554.676 366.331C554.676 366.331 553.246 366.242 550.864 366.242C543.329 366.242 526.175 367.255 514.143 375.599C514.143 375.599 513.399 376.404 513.369 377.626C513.339 378.043 513.429 378.49 513.637 378.967C513.637 378.967 532.965 366.451 550.804 379.324C551.906 380.099 552.978 380.844 553.991 381.529L555.599 385.433C558.25 391.93 565.725 395.059 572.217 392.406L588.567 385.701L591.962 384.301C597.74 381.917 600.539 375.242 598.156 369.49ZM566.439 357.898L559.768 360.64C557.952 361.385 556.999 363.351 557.475 365.199L556.76 365.497C554.05 356.08 557.356 346.574 564.801 343.534C565.844 343.117 566.916 342.819 568.018 342.7C571.443 342.253 575.016 343.177 578.233 345.173C581.27 347.081 584.01 349.941 585.946 353.547L584.963 353.964C584.01 352.325 581.955 351.58 580.139 352.325L573.468 355.067C572.961 353.786 571.711 353.011 570.4 353.011C569.983 353.011 569.566 353.1 569.179 353.249L568.256 353.637C566.559 354.292 565.754 356.199 566.439 357.898Z" fill="#868686"/>
<path d="M553.961 381.529C552.919 380.844 551.876 380.129 550.774 379.324C532.906 366.451 513.607 378.967 513.607 378.967C513.399 378.49 513.339 378.013 513.339 377.626C516.049 375.838 526.175 369.907 538.743 371.934C553.455 374.318 556.105 376.374 553.961 381.529Z" fill="#757575"/>
<path d="M591.962 384.301L588.567 385.701C593.689 382.9 587.346 371.099 583.653 363.322C579.96 355.544 574.361 359.09 574.361 359.09C573.081 356.468 570.341 356.617 570.341 356.617C570.192 354.113 568.286 353.607 568.286 353.607L569.209 353.219C569.626 353.07 570.043 352.981 570.43 352.981C571.74 352.981 572.961 353.756 573.498 355.037L580.169 352.296C581.985 351.551 584.04 352.296 584.993 353.935L585.976 353.517C584.01 349.912 581.3 347.021 578.263 345.144C575.046 343.147 571.472 342.223 568.048 342.67C568.584 342.223 569.149 341.627 569.686 340.793C573.229 340.763 576.803 341.985 579.99 344.19C583.028 346.276 585.708 349.226 587.644 352.892C589.55 352.355 591.575 353.339 592.349 355.216L598.216 369.52C600.539 375.242 597.74 381.917 591.962 384.301Z" fill="#757575"/>
<path d="M584.308 352.087C586.691 353.1 590.026 356.557 595.357 354.471C599.169 352.981 603.219 351.938 605.185 351.461C605.959 351.312 606.406 351.193 606.406 351.193L604.291 345.054C604.291 345.054 604.232 345.084 604.023 345.114C602.653 345.412 595.685 346.902 592.438 346.157C588.775 345.293 582.611 349.703 582.611 349.703C582.611 349.703 581.926 351.133 584.308 352.087Z" fill="#BEBEBE"/>
<path d="M517.36 389.307C517.36 387.072 513.339 380.218 513.339 380.218C513.339 380.218 509.319 387.102 509.319 389.307C509.319 391.542 511.136 393.33 513.339 393.33C515.573 393.36 517.36 391.542 517.36 389.307Z" fill="#D5D5D5"/>
<path d="M626.776 122.359L620.85 123.64L620.701 123.67C619.986 123.819 619.51 124.504 619.569 125.22L620.105 130.256C620.105 130.345 620.105 130.435 620.105 130.494C620.075 131.06 619.688 131.567 619.152 131.746C615.995 132.878 613.077 134.607 610.605 136.871C610.516 136.961 610.396 137.05 610.277 137.11C609.831 137.318 609.265 137.289 608.848 137.02L605.363 134.666C604.887 134.368 604.291 134.338 603.845 134.607C603.696 134.696 603.577 134.785 603.457 134.934L599.467 139.673C598.99 140.239 599.02 141.133 599.556 141.669L603.517 145.633C603.904 146.02 604.023 146.616 603.845 147.123C603.577 147.868 603.338 148.642 603.16 149.417C602.802 150.877 602.564 152.367 602.475 153.828C602.445 154.424 602.028 154.96 601.462 155.139L596.012 156.837L595.744 156.927C595.029 157.135 594.612 157.851 594.761 158.596L596.072 164.645C596.25 165.39 596.935 165.897 597.68 165.807L603.279 165.211C603.904 165.152 604.5 165.479 604.738 166.046C605.84 168.43 607.299 170.605 609.086 172.542C609.533 173.049 609.592 173.764 609.205 174.33L606.436 178.472C606.019 179.098 606.138 179.932 606.704 180.409L611.439 184.402C612.005 184.879 612.839 184.849 613.345 184.313L618.021 179.664C618.408 179.277 619.003 179.128 619.539 179.307C620.195 179.515 620.85 179.724 621.535 179.903C622.815 180.23 624.096 180.439 625.376 180.558C625.942 180.618 626.449 181.005 626.627 181.542L628.652 188.098C628.891 188.813 629.605 189.23 630.35 189.081L636.425 187.77C637.081 187.621 637.527 187.055 637.557 186.429C637.557 186.369 637.557 186.28 637.557 186.22L636.902 180.022C636.842 179.456 637.11 178.889 637.617 178.591C637.646 178.562 637.706 178.532 637.765 178.532C637.914 178.472 638.033 178.413 638.182 178.323C639.82 177.578 641.369 176.654 642.799 175.552C643.275 175.194 643.93 175.164 644.436 175.522L648.814 178.472C649.44 178.889 650.274 178.77 650.75 178.204L651.644 177.161L654.741 173.496C655.217 172.929 655.188 172.065 654.651 171.529L650.75 167.625C650.333 167.208 650.214 166.582 650.482 166.046C651.137 164.645 651.643 163.125 652.031 161.576C652.328 160.413 652.507 159.251 652.626 158.089L653.758 157.731L658.434 156.271C659.029 156.092 659.416 155.556 659.416 154.99C659.416 154.871 659.417 154.751 659.387 154.632L658.076 148.553C657.927 147.838 657.242 147.361 656.498 147.421L652.686 147.838C652.031 147.897 651.405 147.51 651.197 146.914C650.274 144.381 648.933 142.027 647.296 139.941C646.908 139.434 646.879 138.779 647.236 138.272L650.72 132.908C651.107 132.312 650.988 131.537 650.452 131.06L645.658 127.008C645.092 126.531 644.258 126.561 643.752 127.097L638.897 131.954C638.48 132.372 637.855 132.491 637.319 132.252C636.157 131.746 634.936 131.358 633.656 131.031C632.971 130.852 632.286 130.733 631.601 130.613C631.065 130.524 630.618 130.137 630.439 129.63L628.503 123.342C628.235 122.627 627.521 122.21 626.776 122.359ZM614.864 150.699C615.43 149.119 616.323 147.599 617.544 146.139C617.812 145.811 618.11 145.513 618.467 145.186C620.016 143.845 622.25 142.623 624.007 142.235C637.349 139.404 646.223 153.798 637.914 164.407C637.765 164.585 637.646 164.764 637.497 164.913C636.157 166.522 633.358 168.191 631.303 168.638C630.231 168.877 629.188 168.996 628.176 169.026C618.14 169.324 611.588 159.639 614.864 150.699Z" fill="#EDEDED"/>
<path d="M717.043 142.861L707.751 143.696L707.543 143.725C706.411 143.845 705.548 144.768 705.518 145.901L705.369 153.708C705.369 153.828 705.339 153.977 705.339 154.096C705.16 154.93 704.505 155.645 703.671 155.824C698.609 156.957 693.814 159.043 689.585 162.052C689.406 162.172 689.228 162.261 689.019 162.321C688.275 162.559 687.441 162.41 686.845 161.903L681.931 157.612C681.276 157.046 680.382 156.927 679.608 157.255C679.37 157.344 679.161 157.493 678.953 157.672L671.954 164.138C671.091 164.943 670.972 166.284 671.716 167.208L677.047 174.032C677.583 174.717 677.643 175.611 677.255 176.386C676.719 177.489 676.213 178.621 675.766 179.783C674.932 181.959 674.307 184.194 673.86 186.399C673.682 187.323 672.967 188.038 672.044 188.187L663.377 189.737L662.931 189.826C661.829 190.005 661.025 191.048 661.114 192.18L661.978 201.686C662.097 202.849 663.05 203.743 664.211 203.772L672.878 203.951C673.831 203.981 674.694 204.607 674.962 205.501C676.183 209.345 678 212.981 680.353 216.259C680.948 217.093 680.889 218.225 680.204 219L675.141 224.841C674.367 225.735 674.396 227.046 675.201 227.881L681.693 234.913C682.467 235.748 683.748 235.837 684.611 235.152L692.652 228.894C693.337 228.357 694.261 228.268 695.035 228.626C695.988 229.102 696.971 229.52 697.983 229.907C699.889 230.652 701.825 231.218 703.731 231.635C704.595 231.814 705.28 232.5 705.428 233.394L707.275 243.824C707.483 244.986 708.526 245.761 709.687 245.671L719.247 244.807C720.26 244.718 721.064 243.943 721.242 242.959C721.272 242.87 721.272 242.751 721.272 242.632L721.451 233.006C721.451 232.112 721.987 231.308 722.821 230.98C722.88 230.95 722.97 230.92 723.029 230.89C723.267 230.831 723.476 230.771 723.684 230.682C726.335 229.847 728.866 228.715 731.308 227.344C732.113 226.867 733.125 226.987 733.84 227.612L740.005 232.947C740.868 233.721 742.179 233.692 743.042 232.887L744.591 231.457L750.011 226.42C750.875 225.646 750.964 224.334 750.249 223.411L745.008 216.676C744.442 215.961 744.412 214.977 744.889 214.202C746.139 212.176 747.241 209.971 748.135 207.646C748.79 205.918 749.326 204.16 749.743 202.402L759.005 200.733C759.928 200.584 760.643 199.839 760.792 198.945C760.822 198.766 760.822 198.557 760.822 198.379L759.988 188.783C759.869 187.651 758.916 186.786 757.814 186.757L751.887 186.667C750.875 186.637 750.011 185.952 749.773 184.969C748.82 180.916 747.271 177.042 745.127 173.525C744.621 172.691 744.71 171.648 745.335 170.933L751.738 163.572C752.453 162.738 752.423 161.516 751.679 160.711L745.097 153.589C744.323 152.755 743.042 152.636 742.149 153.351L733.78 159.847C733.065 160.413 732.083 160.473 731.279 160.026C729.581 159.043 727.764 158.178 725.888 157.463C724.876 157.076 723.833 156.718 722.821 156.42C722.017 156.182 721.391 155.496 721.242 154.692L719.485 144.709C719.247 143.576 718.205 142.772 717.043 142.861ZM693.397 184.015C694.588 181.72 696.226 179.545 698.37 177.519C698.817 177.101 699.383 176.654 699.979 176.237C702.599 174.449 706.262 173.019 709.002 172.78C729.998 171.022 740.809 194.773 726.067 209.405C725.829 209.643 725.59 209.881 725.322 210.12C722.94 212.325 718.354 214.351 715.137 214.649C713.44 214.798 711.831 214.798 710.283 214.649C694.856 213.159 686.637 197.097 693.397 184.015Z" fill="#E5E5E5"/>
</svg>
